font.ufo
<glyph name="exclam" format="2">
	<unicode hex="0021"/>
	<advance width="260"/>
	<outline>
		<contour>
			<point x="119" y="193" type="line"/>
			<point x="139" y="193" type="line"/>
			<point x="220" y="483"/>
			<point x="258" y="612"/>
			<point x="258" y="646" type="curve" smooth="yes"/>
			<point x="258" y="675"/>
			<point x="245" y="686"/>
			<point x="220" y="686" type="curve" smooth="yes"/>
			<point x="189" y="686"/>
			<point x="170" y="669"/>
			<point x="161" y="625" type="curve" smooth="yes"/>
			<point x="154" y="588"/>
			<point x="145" y="471"/>
			<point x="131" y="331" type="curve" smooth="yes"/>
		</contour>
		<contour>
			<point x="49" y="40" type="curve" smooth="yes"/>
			<point x="49" y="13"/>
			<point x="69" y="-8"/>
			<point x="97" y="-8" type="curve" smooth="yes"/>
			<point x="130" y="-8"/>
			<point x="155" y="16"/>
			<point x="155" y="50" type="curve" smooth="yes"/>
			<point x="155" y="75"/>
			<point x="136" y="98"/>
			<point x="108" y="98" type="curve" smooth="yes"/>
			<point x="76" y="98"/>
			<point x="49" y="73"/>
		</contour>
	</outline>
</glyph>
<glyph name="comma" format="2">
	<unicode hex="002C"/>
	<advance width="252"/>
	<outline>
		<contour>
			<point x="134" y="51" type="curve" smooth="yes"/>
			<point x="134" y="67"/>
			<point x="130" y="77"/>
			<point x="124" y="87" type="curve"/>
			<point x="112" y="93"/>
			<point x="101" y="98"/>
			<point x="87" y="98" type="curve" smooth="yes"/>
			<point x="48" y="98"/>
			<point x="33" y="69"/>
			<point x="33" y="43" type="curve" smooth="yes"/>
			<point x="33" y="29"/>
			<point x="40" y="8"/>
			<point x="62" y="-11" type="curve" smooth="yes"/>
			<point x="86" y="-32" type="line"/>
			<point x="88" y="-21" type="line"/>
			<point x="69" y="-65"/>
			<point x="38" y="-90"/>
			<point x="-12" y="-114" type="curve"/>
			<point x="-7" y="-131" type="line"/>
			<point x="79" y="-108"/>
			<point x="134" y="-33"/>
		</contour>
	</outline>
</glyph>
<glyph name="period" format="2">
	<unicode hex="002E"/>
	<advance width="267"/>
	<outline>
		<contour>
			<point x="91" y="-8" type="curve" smooth="yes"/>
			<point x="124" y="-8"/>
			<point x="149" y="16"/>
			<point x="149" y="50" type="curve" smooth="yes"/>
			<point x="149" y="75"/>
			<point x="130" y="98"/>
			<point x="102" y="98" type="curve" smooth="yes"/>
			<point x="70" y="98"/>
			<point x="42" y="73"/>
			<point x="42" y="40" type="curve" smooth="yes"/>
			<point x="42" y="13"/>
			<point x="63" y="-8"/>
		</contour>
	</outline>
</glyph>
<glyph name="G" format="2">
	<unicode hex="0047"/>
	<advance width="591"/>
	<outline>
		<contour>
			<point x="56" y="244" type="curve" smooth="yes"/>
			<point x="56" y="87"/>
			<point x="139" y="-16"/>
			<point x="297" y="-16" type="curve" smooth="yes"/>
			<point x="357" y="-16"/>
			<point x="420" y="2"/>
			<point x="479" y="35" type="curve"/>
			<point x="531" y="318" type="line"/>
			<point x="469" y="318" type="line"/>
			<point x="458" y="249"/>
			<point x="447" y="174"/>
			<point x="430" y="88" type="curve" smooth="yes"/>
			<point x="417" y="20" type="line"/>
			<point x="432" y="37" type="line"/>
			<point x="383" y="12"/>
			<point x="338" y="4"/>
			<point x="301" y="4" type="curve" smooth="yes"/>
			<point x="188" y="4"/>
			<point x="125" y="87"/>
			<point x="125" y="227" type="curve" smooth="yes"/>
			<point x="125" y="396"/>
			<point x="208" y="666"/>
			<point x="403" y="666" type="curve" smooth="yes"/>
			<point x="442" y="666"/>
			<point x="481" y="660"/>
			<point x="519" y="637" type="curve"/>
			<point x="501" y="651" type="line"/>
			<point x="529" y="484" type="line"/>
			<point x="546" y="484" type="line"/>
			<point x="564" y="639" type="line"/>
			<point x="515" y="679"/>
			<point x="444" y="686"/>
			<point x="406" y="686" type="curve" smooth="yes"/>
			<point x="177" y="686"/>
			<point x="56" y="433"/>
		</contour>
		<contour>
			<point x="367" y="302" type="line"/>
			<point x="488" y="290" type="line"/>
			<point x="508" y="290" type="line"/>
			<point x="592" y="302" type="line"/>
			<point x="595" y="318" type="line"/>
			<point x="371" y="318" type="line"/>
		</contour>
	</outline>
	<anchor name="aboveUC" x="406" y="690"/>
	<anchor name="belowLC" x="303" y="-20"/>
</glyph>
<glyph name="J" format="2">
	<unicode hex="004A"/>
	<advance width="308"/>
	<outline>
		<contour>
			<point x="-114" y="-99" type="curve"/>
			<point x="-111" y="-131"/>
			<point x="-80" y="-145"/>
			<point x="-40" y="-145" type="curve" smooth="yes"/>
			<point x="9" y="-145"/>
			<point x="42" y="-129"/>
			<point x="77" y="-97" type="curve" smooth="yes"/>
			<point x="140" y="-42"/>
			<point x="156" y="18"/>
			<point x="197" y="219" type="curve" smooth="yes"/>
			<point x="290" y="670" type="line"/>
			<point x="220" y="670" type="line"/>
			<point x="198" y="546"/>
			<point x="171" y="420"/>
			<point x="149" y="296" type="curve" smooth="yes"/>
			<point x="119" y="122"/>
			<point x="111" y="67"/>
			<point x="104" y="36" type="curve" smooth="yes"/>
			<point x="89" y="-35"/>
			<point x="62" y="-95"/>
			<point x="10" y="-116" type="curve"/>
			<point x="10" y="-121" type="line"/>
			<point x="35" y="-121" type="line"/>
			<point x="35" y="-116" type="line"/>
			<point x="-13" y="-69"/>
			<point x="-31" y="-59"/>
			<point x="-54" y="-59" type="curve" smooth="yes"/>
			<point x="-85" y="-59"/>
			<point x="-108" y="-77"/>
		</contour>
		<contour>
			<point x="125" y="654" type="line"/>
			<point x="239" y="642" type="line"/>
			<point x="260" y="642" type="line"/>
			<point x="366" y="654" type="line"/>
			<point x="369" y="670" type="line"/>
			<point x="128" y="670" type="line"/>
		</contour>
	</outline>
	<anchor name="aboveUC" x="256" y="690"/>
	<anchor name="belowLC" x="26" y="-165"/>
</glyph>
<glyph name="R" format="2">
	<unicode hex="0052"/>
	<advance width="582"/>
	<outline>
		<contour>
			<point x="2" y="0" type="line"/>
			<point x="233" y="0" type="line"/>
			<point x="236" y="16" type="line"/>
			<point x="130" y="28" type="line"/>
			<point x="105" y="28" type="line"/>
			<point x="5" y="16" type="line"/>
		</contour>
		<contour>
			<point x="81" y="0" type="line"/>
			<point x="152" y="0" type="line"/>
			<point x="168" y="103"/>
			<point x="185" y="205"/>
			<point x="204" y="308" type="curve" smooth="yes"/>
			<point x="272" y="670" type="line"/>
			<point x="201" y="670" type="line"/>
			<point x="185" y="567"/>
			<point x="168" y="462"/>
			<point x="149" y="359" type="curve" smooth="yes"/>
		</contour>
		<contour>
			<point x="116" y="654" type="line"/>
			<point x="221" y="642" type="line"/>
			<point x="247" y="642" type="line"/>
			<point x="247" y="670" type="line"/>
			<point x="119" y="670" type="line"/>
		</contour>
		<contour>
			<point x="486" y="-8" type="curve" smooth="yes"/>
			<point x="515" y="-8"/>
			<point x="530" y="-5"/>
			<point x="549" y="0" type="curve"/>
			<point x="552" y="16" type="line"/>
			<point x="455" y="27" type="line"/>
			<point x="488" y="16" type="line"/>
			<point x="427" y="198" type="line" smooth="yes"/>
			<point x="398" y="284"/>
			<point x="370" y="316"/>
			<point x="290" y="323" type="curve"/>
			<point x="290" y="315" type="line"/>
			<point x="443" y="325"/>
			<point x="528" y="426"/>
			<point x="528" y="525" type="curve" smooth="yes"/>
			<point x="528" y="613"/>
			<point x="457" y="670"/>
			<point x="339" y="670" type="curve" smooth="yes"/>
			<point x="223" y="670" type="line"/>
			<point x="218" y="646" type="line"/>
			<point x="338" y="646" type="line" smooth="yes"/>
			<point x="420" y="646"/>
			<point x="459" y="601"/>
			<point x="459" y="527" type="curve" smooth="yes"/>
			<point x="459" y="418"/>
			<point x="389" y="334"/>
			<point x="274" y="334" type="curve" smooth="yes"/>
			<point x="165" y="334" type="line"/>
			<point x="160" y="310" type="line"/>
			<point x="232" y="310" type="line" smooth="yes"/>
			<point x="310" y="310"/>
			<point x="331" y="292"/>
			<point x="354" y="215" type="curve" smooth="yes"/>
			<point x="400" y="57" type="line" smooth="yes"/>
			<point x="414" y="8"/>
			<point x="428" y="-8"/>
		</contour>
	</outline>
	<anchor name="aboveUC" x="336" y="690"/>
	<anchor name="belowLC" x="290" y="-20"/>
</glyph>
<glyph name="T" format="2">
	<unicode hex="0054"/>
	<advance width="537"/>
	<outline>
		<contour>
			<point x="70" y="482" type="line"/>
			<point x="87" y="482" type="line"/>
			<point x="178" y="658" type="line"/>
			<point x="134" y="646" type="line"/>
			<point x="565" y="646" type="line"/>
			<point x="528" y="658" type="line"/>
			<point x="563" y="482" type="line"/>
			<point x="579" y="482" type="line"/>
			<point x="595" y="670" type="line"/>
			<point x="111" y="670" type="line"/>
		</contour>
		<contour>
			<point x="106" y="0" type="line"/>
			<point x="360" y="0" type="line"/>
			<point x="363" y="16" type="line"/>
			<point x="249" y="28" type="line"/>
			<point x="227" y="28" type="line"/>
			<point x="109" y="16" type="line"/>
		</contour>
		<contour>
			<point x="197" y="0" type="line"/>
			<point x="268" y="0" type="line"/>
			<point x="284" y="103"/>
			<point x="301" y="205"/>
			<point x="320" y="308" type="curve" smooth="yes"/>
			<point x="388" y="670" type="line"/>
			<point x="317" y="670" type="line"/>
			<point x="301" y="567"/>
			<point x="284" y="464"/>
			<point x="265" y="361" type="curve" smooth="yes"/>
		</contour>
	</outline>
	<anchor name="aboveUC" x="358" y="690"/>
	<anchor name="baseLC" x="243" y="0"/>
	<anchor name="belowLC" x="245" y="-20"/>
</glyph>
<glyph name="W" format="2">
	<unicode hex="0057"/>
	<advance width="873"/>
	<outline>
		<contour>
			<point x="173" y="642" type="line"/>
			<point x="187" y="642" type="line"/>
			<point x="313" y="654" type="line"/>
			<point x="316" y="670" type="line"/>
			<point x="86" y="670" type="line"/>
			<point x="83" y="654" type="line"/>
		</contour>
		<contour>
			<point x="196" y="-6" type="line"/>
			<point x="218" y="-6" type="line"/>
			<point x="501" y="582" type="line"/>
			<point x="507" y="594" type="line"/>
			<point x="491" y="594" type="line"/>
			<point x="550" y="-6" type="line"/>
			<point x="572" y="-6" type="line"/>
			<point x="882" y="670" type="line"/>
			<point x="850" y="670" type="line"/>
			<point x="600" y="113" type="line"/>
			<point x="593" y="98" type="line"/>
			<point x="610" y="98" type="line"/>
			<point x="553" y="670" type="line"/>
			<point x="516" y="670" type="line"/>
			<point x="248" y="116" type="line"/>
			<point x="239" y="98" type="line"/>
			<point x="256" y="98" type="line"/>
			<point x="219" y="670" type="line"/>
			<point x="147" y="670" type="line"/>
		</contour>
		<contour>
			<point x="506" y="645" type="line"/>
			<point x="531" y="642" type="line"/>
			<point x="641" y="654" type="line"/>
			<point x="644" y="670" type="line"/>
			<point x="424" y="670" type="line"/>
			<point x="421" y="654" type="line"/>
		</contour>
		<contour>
			<point x="847" y="644" type="line"/>
			<point x="859" y="644" type="line"/>
			<point x="942" y="654" type="line"/>
			<point x="946" y="670" type="line"/>
			<point x="749" y="670" type="line"/>
			<point x="746" y="654" type="line"/>
		</contour>
	</outline>
	<anchor name="aboveUC" x="518" y="690"/>
	<anchor name="belowLC" x="399" y="-20"/>
</glyph>
<glyph name="Z" format="2">
	<unicode hex="005A"/>
	<advance width="518"/>
	<outline>
		<contour>
			<point x="5" y="0" type="line"/>
			<point x="444" y="0" type="line"/>
			<point x="490" y="188" type="line"/>
			<point x="474" y="188" type="line"/>
			<point x="381" y="12" type="line"/>
			<point x="423" y="24" type="line"/>
			<point x="260" y="24" type="line"/>
			<point x="84" y="24" type="line"/>
			<point x="85" y="31" type="line"/>
			<point x="76" y="8" type="line"/>
			<point x="544" y="654" type="line"/>
			<point x="546" y="670" type="line"/>
			<point x="131" y="670" type="line"/>
			<point x="94" y="494" type="line"/>
			<point x="110" y="494" type="line"/>
			<point x="196" y="658" type="line"/>
			<point x="154" y="646" type="line"/>
			<point x="322" y="646" type="line"/>
			<point x="467" y="646" type="line"/>
			<point x="466" y="637" type="line"/>
			<point x="477" y="664" type="line"/>
			<point x="9" y="16" type="line"/>
		</contour>
	</outline>
	<anchor name="aboveUC" x="338" y="690"/>
	<anchor name="belowLC" x="239" y="-20"/>
</glyph>
<glyph name="e" format="2">
	<unicode hex="0065"/>
	<advance width="378"/>
	<outline>
		<contour>
			<point x="163" y="-12" type="curve" smooth="yes"/>
			<point x="239" y="-12"/>
			<point x="296" y="36"/>
			<point x="334" y="103" type="curve"/>
			<point x="322" y="111" type="line"/>
			<point x="294" y="79"/>
			<point x="243" y="38"/>
			<point x="193" y="38" type="curve" smooth="yes"/>
			<point x="136" y="38"/>
			<point x="89" y="76"/>
			<point x="89" y="154" type="curve" smooth="yes"/>
			<point x="89" y="316"/>
			<point x="200" y="444"/>
			<point x="270" y="444" type="curve" smooth="yes"/>
			<point x="301" y="444"/>
			<point x="314" y="418"/>
			<point x="314" y="388" type="curve" smooth="yes"/>
			<point x="314" y="318"/>
			<point x="255" y="245"/>
			<point x="69" y="194" type="curve"/>
			<point x="73" y="176" type="line"/>
			<point x="318" y="242"/>
			<point x="372" y="318"/>
			<point x="372" y="388" type="curve" smooth="yes"/>
			<point x="372" y="439"/>
			<point x="337" y="464"/>
			<point x="277" y="464" type="curve" smooth="yes"/>
			<point x="163" y="464"/>
			<point x="26" y="314"/>
			<point x="26" y="137" type="curve" smooth="yes"/>
			<point x="26" y="40"/>
			<point x="82" y="-12"/>
		</contour>
	</outline>
	<anchor name="aboveLC" x="257" y="472"/>
	<anchor name="belowLC" x="163" y="-20"/>
	<anchor name="ogonek" x="217" y="0"/>
</glyph>
<glyph name="i" format="2">
	<unicode hex="0069"/>
	<advance width="284"/>
	<outline>
		<contour>
			<point x="70" y="32" type="curve" smooth="yes"/>
			<point x="70" y="2"/>
			<point x="96" y="-12"/>
			<point x="120" y="-12" type="curve" smooth="yes"/>
			<point x="182" y="-12"/>
			<point x="224" y="44"/>
			<point x="255" y="95" type="curve"/>
			<point x="243" y="105" type="line"/>
			<point x="208" y="65"/>
			<point x="172" y="39"/>
			<point x="153" y="39" type="curve" smooth="yes"/>
			<point x="144" y="39"/>
			<point x="135" y="46"/>
			<point x="135" y="58" type="curve" smooth="yes"/>
			<point x="135" y="68"/>
			<point x="139" y="86"/>
			<point x="143" y="107" type="curve" smooth="yes"/>
			<point x="216" y="456" type="line"/>
			<point x="207" y="464" type="line"/>
			<point x="59" y="422" type="line"/>
			<point x="57" y="408" type="line"/>
			<point x="157" y="392" type="line"/>
			<point x="143" y="401" type="line"/>
			<point x="78" y="93" type="line" smooth="yes"/>
			<point x="71" y="58"/>
			<point x="70" y="44"/>
		</contour>
		<contour>
			<point x="209" y="573" type="curve" smooth="yes"/>
			<point x="239" y="573"/>
			<point x="267" y="599"/>
			<point x="267" y="635" type="curve" smooth="yes"/>
			<point x="267" y="661"/>
			<point x="250" y="679"/>
			<point x="224" y="679" type="curve" smooth="yes"/>
			<point x="194" y="679"/>
			<point x="167" y="651"/>
			<point x="167" y="615" type="curve" smooth="yes"/>
			<point x="167" y="590"/>
			<point x="185" y="573"/>
		</contour>
	</outline>
	<anchor name="aboveLC" x="218" y="679"/>
	<anchor name="belowLC" x="114" y="-20"/>
	<anchor name="ogonek" x="159" y="0"/>
</glyph>
<glyph name="w" format="2">
	<unicode hex="0077"/>
	<advance width="692"/>
	<outline>
		<contour>
			<point x="145" y="0" type="curve"/>
			<point x="149" y="-4" type="line"/>
			<point x="174" y="0" type="line"/>
			<point x="266" y="106"/>
			<point x="349" y="265"/>
			<point x="383" y="357" type="curve"/>
			<point x="388" y="372" type="line"/>
			<point x="375" y="366" type="line"/>
			<point x="380" y="244"/>
			<point x="385" y="123"/>
			<point x="390" y="0" type="curve"/>
			<point x="394" y="-4" type="line"/>
			<point x="418" y="0" type="line"/>
			<point x="514" y="99"/>
			<point x="594" y="211"/>
			<point x="630" y="296" type="curve" smooth="yes"/>
			<point x="642" y="324"/>
			<point x="674" y="379"/>
			<point x="674" y="426" type="curve" smooth="yes"/>
			<point x="674" y="436"/>
			<point x="672" y="444"/>
			<point x="670" y="452" type="curve"/>
			<point x="663" y="459"/>
			<point x="653" y="464"/>
			<point x="639" y="464" type="curve" smooth="yes"/>
			<point x="618" y="464"/>
			<point x="600" y="452"/>
			<point x="600" y="412" type="curve" smooth="yes"/>
			<point x="600" y="397"/>
			<point x="601" y="376"/>
			<point x="612" y="330" type="curve" smooth="yes"/>
			<point x="621" y="297" type="line"/>
			<point x="624" y="342" type="line"/>
			<point x="620" y="329"/>
			<point x="615" y="315"/>
			<point x="609" y="303" type="curve" smooth="yes"/>
			<point x="571" y="213"/>
			<point x="504" y="127"/>
			<point x="438" y="49" type="curve"/>
			<point x="436" y="45" type="line"/>
			<point x="451" y="45" type="line"/>
			<point x="446" y="180"/>
			<point x="440" y="316"/>
			<point x="434" y="452" type="curve"/>
			<point x="397" y="452" type="line"/>
			<point x="343" y="303"/>
			<point x="268" y="160"/>
			<point x="193" y="52" type="curve"/>
			<point x="191" y="49" type="line"/>
			<point x="203" y="49" type="line"/>
			<point x="203" y="164"/>
			<point x="196" y="299"/>
			<point x="183" y="387" type="curve" smooth="yes"/>
			<point x="175" y="441"/>
			<point x="159" y="464"/>
			<point x="120" y="464" type="curve" smooth="yes"/>
			<point x="74" y="464"/>
			<point x="46" y="424"/>
			<point x="14" y="348" type="curve"/>
			<point x="26" y="339" type="line"/>
			<point x="62" y="397"/>
			<point x="78" y="413"/>
			<point x="95" y="413" type="curve" smooth="yes"/>
			<point x="108" y="413"/>
			<point x="117" y="403"/>
			<point x="123" y="360" type="curve" smooth="yes"/>
			<point x="136" y="259"/>
			<point x="142" y="151"/>
		</contour>
	</outline>
	<anchor name="aboveLC" x="399" y="472"/>
	<anchor name="belowLC" x="296" y="-20"/>
</glyph>
<glyph name="x" format="2">
	<unicode hex="0078"/>
	<advance width="471"/>
	<outline>
		<contour>
			<point x="317" y="-12" type="curve" smooth="yes"/>
			<point x="364" y="-12"/>
			<point x="409" y="44"/>
			<point x="443" y="112" type="curve"/>
			<point x="430" y="119" type="line"/>
			<point x="399" y="77"/>
			<point x="369" y="39"/>
			<point x="341" y="39" type="curve" smooth="yes"/>
			<point x="320" y="39"/>
			<point x="309" y="71"/>
			<point x="303" y="96" type="curve" smooth="yes"/>
			<point x="261" y="263" type="line"/>
			<point x="260" y="268" type="line"/>
			<point x="231" y="380" type="line" smooth="yes"/>
			<point x="215" y="441"/>
			<point x="205" y="464"/>
			<point x="166" y="464" type="curve" smooth="yes"/>
			<point x="124" y="464"/>
			<point x="88" y="421"/>
			<point x="58" y="344" type="curve"/>
			<point x="71" y="337" type="line"/>
			<point x="100" y="392"/>
			<point x="126" y="413"/>
			<point x="138" y="413" type="curve" smooth="yes"/>
			<point x="156" y="413"/>
			<point x="161" y="395"/>
			<point x="171" y="356" type="curve" smooth="yes"/>
			<point x="212" y="193" type="line"/>
			<point x="214" y="185" type="line"/>
			<point x="242" y="72" type="line" smooth="yes"/>
			<point x="260" y="0"/>
			<point x="283" y="-12"/>
		</contour>
		<contour>
			<point x="-19" y="60" type="curve"/>
			<point x="-10" y="4"/>
			<point x="30" y="-12"/>
			<point x="59" y="-12" type="curve" smooth="yes"/>
			<point x="85" y="-12"/>
			<point x="106" y="-1"/>
			<point x="132" y="33" type="curve" smooth="yes"/>
			<point x="158" y="67"/>
			<point x="193" y="125"/>
			<point x="236" y="217" type="curve"/>
			<point x="227" y="237" type="line"/>
			<point x="180" y="143"/>
			<point x="142" y="81"/>
			<point x="113" y="45" type="curve" smooth="yes"/>
			<point x="93" y="20"/>
			<point x="78" y="12"/>
			<point x="66" y="11" type="curve"/>
			<point x="66" y="2" type="line"/>
			<point x="79" y="2" type="line"/>
			<point x="63" y="48" type="line" smooth="yes"/>
			<point x="50" y="82"/>
			<point x="36" y="91"/>
			<point x="17" y="91" type="curve" smooth="yes"/>
			<point x="1" y="91"/>
			<point x="-15" y="82"/>
		</contour>
		<contour>
			<point x="245" y="215" type="line"/>
			<point x="291" y="309"/>
			<point x="330" y="371"/>
			<point x="359" y="407" type="curve" smooth="yes"/>
			<point x="379" y="433"/>
			<point x="394" y="441"/>
			<point x="406" y="441" type="curve"/>
			<point x="406" y="454" type="line"/>
			<point x="388" y="454" type="line"/>
			<point x="410" y="406" type="line" smooth="yes"/>
			<point x="422" y="379"/>
			<point x="434" y="365"/>
			<point x="457" y="365" type="curve" smooth="yes"/>
			<point x="473" y="365"/>
			<point x="486" y="373"/>
			<point x="491" y="394" type="curve"/>
			<point x="483" y="446"/>
			<point x="444" y="464"/>
			<point x="415" y="464" type="curve" smooth="yes"/>
			<point x="389" y="464"/>
			<point x="367" y="453"/>
			<point x="342" y="419" type="curve" smooth="yes"/>
			<point x="315" y="385"/>
			<point x="281" y="327"/>
			<point x="238" y="235" type="curve"/>
		</contour>
	</outline>
	<anchor name="aboveLC" x="282" y="472"/>
	<anchor name="belowLC" x="178" y="-20"/>
</glyph>
<glyph name="plusminus" format="2">
	<unicode hex="00B1"/>
	<advance width="497"/>
	<outline>
		<contour>
			<point x="249" y="101" type="line"/>
			<point x="284" y="101" type="line"/>
			<point x="284" y="556" type="line"/>
			<point x="249" y="556" type="line"/>
		</contour>
		<contour>
			<point x="486" y="316" type="line"/>
			<point x="486" y="349" type="line"/>
			<point x="46" y="349" type="line"/>
			<point x="46" y="316" type="line"/>
		</contour>
		<contour>
			<point x="486" y="0" type="line"/>
			<point x="486" y="33" type="line"/>
			<point x="46" y="33" type="line"/>
			<point x="46" y="0" type="line"/>
		</contour>
	</outline>
</glyph>
<glyph name="three.sups" format="2">
	<unicode hex="00B3"/>
	<advance width="329"/>
	<outline>
		<contour>
			<point x="197" y="419" type="curve" smooth="yes"/>
			<point x="302" y="419"/>
			<point x="355" y="479"/>
			<point x="355" y="539" type="curve" smooth="yes"/>
			<point x="355" y="597"/>
			<point x="302" y="641"/>
			<point x="214" y="641" type="curve"/>
			<point x="219" y="636" type="line"/>
			<point x="318" y="636"/>
			<point x="376" y="695"/>
			<point x="376" y="752" type="curve" smooth="yes"/>
			<point x="376" y="799"/>
			<point x="335" y="841"/>
			<point x="257" y="841" type="curve" smooth="yes"/>
			<point x="192" y="841"/>
			<point x="142" y="806"/>
			<point x="135" y="754" type="curve"/>
			<point x="139" y="743"/>
			<point x="149" y="737"/>
			<point x="161" y="737" type="curve" smooth="yes"/>
			<point x="179" y="737"/>
			<point x="187" y="746"/>
			<point x="194" y="776" type="curve" smooth="yes"/>
			<point x="208" y="829" type="line"/>
			<point x="184" y="809" type="line"/>
			<point x="208" y="825"/>
			<point x="228" y="828"/>
			<point x="248" y="828" type="curve" smooth="yes"/>
			<point x="297" y="828"/>
			<point x="321" y="792"/>
			<point x="321" y="752" type="curve" smooth="yes"/>
			<point x="321" y="689"/>
			<point x="294" y="646"/>
			<point x="191" y="646" type="curve"/>
			<point x="188" y="631" type="line"/>
			<point x="277" y="631"/>
			<point x="297" y="593"/>
			<point x="297" y="540" type="curve" smooth="yes"/>
			<point x="297" y="488"/>
			<point x="262" y="433"/>
			<point x="195" y="433" type="curve" smooth="yes"/>
			<point x="172" y="433"/>
			<point x="149" y="436"/>
			<point x="127" y="453" type="curve"/>
			<point x="141" y="435" type="line"/>
			<point x="138" y="500" type="line" smooth="yes"/>
			<point x="137" y="527"/>
			<point x="126" y="536"/>
			<point x="110" y="536" type="curve" smooth="yes"/>
			<point x="98" y="536"/>
			<point x="86" y="530"/>
			<point x="81" y="515" type="curve"/>
			<point x="82" y="448"/>
			<point x="133" y="419"/>
		</contour>
	</outline>
</glyph>
<glyph name="one.sups" format="2">
	<unicode hex="00B9"/>
	<advance width="329"/>
	<outline>
		<contour>
			<point x="92" y="426" type="line"/>
			<point x="331" y="426" type="line"/>
			<point x="333" y="438" type="line"/>
			<point x="222" y="450" type="line"/>
			<point x="202" y="450" type="line"/>
			<point x="94" y="438" type="line"/>
		</contour>
		<contour>
			<point x="180" y="426" type="line"/>
			<point x="236" y="426" type="line"/>
			<point x="293" y="705" type="line"/>
			<point x="322" y="830" type="line"/>
			<point x="317" y="836" type="line"/>
			<point x="174" y="797" type="line"/>
			<point x="172" y="787" type="line"/>
			<point x="276" y="796" type="line"/>
			<point x="259" y="812" type="line"/>
		</contour>
	</outline>
</glyph>
<glyph name="multiply" format="2">
	<unicode hex="00D7"/>
	<advance width="500"/>
	<outline>
		<contour>
			<point x="448" y="113" type="line"/>
			<point x="471" y="136" type="line"/>
			<point x="94" y="547" type="line"/>
			<point x="71" y="523" type="line"/>
		</contour>
		<contour>
			<point x="470" y="524" type="line"/>
			<point x="449" y="546" type="line"/>
			<point x="72" y="135" type="line"/>
			<point x="93" y="114" type="line"/>
		</contour>
	</outline>
</glyph>
<glyph name="idieresis" format="2">
	<unicode hex="00EF"/>
	<advance width="284"/>
	<outline>
		<contour>
			<point x="147" y="580" type="curve" smooth="yes"/>
			<point x="175" y="580"/>
			<point x="198" y="602"/>
			<point x="198" y="634" type="curve" smooth="yes"/>
			<point x="198" y="657"/>
			<point x="181" y="675"/>
			<point x="157" y="675" type="curve" smooth="yes"/>
			<point x="130" y="675"/>
			<point x="105" y="654"/>
			<point x="105" y="622" type="curve" smooth="yes"/>
			<point x="105" y="596"/>
			<point x="124" y="580"/>
		</contour>
		<contour>
			<point x="296" y="580" type="curve" smooth="yes"/>
			<point x="325" y="580"/>
			<point x="348" y="602"/>
			<point x="348" y="634" type="curve" smooth="yes"/>
			<point x="348" y="657"/>
			<point x="331" y="675"/>
			<point x="306" y="675" type="curve" smooth="yes"/>
			<point x="281" y="675"/>
			<point x="256" y="654"/>
			<point x="256" y="622" type="curve" smooth="yes"/>
			<point x="256" y="596"/>
			<point x="275" y="580"/>
		</contour>
		<component base="dotlessi"/>
	</outline>
</glyph>
<glyph name="divide" format="2">
	<unicode hex="00F7"/>
	<advance width="497"/>
	<outline>
		<contour>
			<point x="270" y="96" type="curve" smooth="yes"/>
			<point x="298" y="96"/>
			<point x="321" y="116"/>
			<point x="321" y="146" type="curve" smooth="yes"/>
			<point x="321" y="176"/>
			<point x="298" y="196"/>
			<point x="270" y="196" type="curve" smooth="yes"/>
			<point x="242" y="196"/>
			<point x="220" y="176"/>
			<point x="220" y="146" type="curve" smooth="yes"/>
			<point x="220" y="116"/>
			<point x="242" y="96"/>
		</contour>
		<contour>
			<point x="270" y="463" type="curve" smooth="yes"/>
			<point x="298" y="463"/>
			<point x="321" y="483"/>
			<point x="321" y="513" type="curve" smooth="yes"/>
			<point x="321" y="544"/>
			<point x="298" y="564"/>
			<point x="270" y="564" type="curve" smooth="yes"/>
			<point x="242" y="564"/>
			<point x="220" y="544"/>
			<point x="220" y="513" type="curve" smooth="yes"/>
			<point x="220" y="483"/>
			<point x="242" y="463"/>
		</contour>
		<component base="minus"/>
	</outline>
</glyph>
<glyph name="dcroat" format="2">
	<unicode hex="0111"/>
	<advance width="501"/>
	<outline>
		<contour>
			<point x="122" y="-12" type="curve" smooth="yes"/>
			<point x="197" y="-12"/>
			<point x="265" y="66"/>
			<point x="330" y="164" type="curve"/>
			<point x="333" y="164" type="line"/>
			<point x="324" y="168" type="line"/>
			<point x="245" y="74"/>
			<point x="193" y="37"/>
			<point x="154" y="37" type="curve" smooth="yes"/>
			<point x="112" y="37"/>
			<point x="99" y="75"/>
			<point x="99" y="132" type="curve" smooth="yes"/>
			<point x="99" y="204"/>
			<point x="129" y="303"/>
			<point x="189" y="364" type="curve" smooth="yes"/>
			<point x="215" y="389"/>
			<point x="247" y="408"/>
			<point x="282" y="408" type="curve" smooth="yes"/>
			<point x="327" y="408"/>
			<point x="355" y="379"/>
			<point x="373" y="356" type="curve"/>
			<point x="399" y="395" type="line"/>
			<point x="376" y="431"/>
			<point x="339" y="452"/>
			<point x="304" y="452" type="curve" smooth="yes"/>
			<point x="181" y="452"/>
			<point x="34" y="256"/>
			<point x="34" y="108" type="curve" smooth="yes"/>
			<point x="34" y="24"/>
			<point x="74" y="-12"/>
		</contour>
		<contour>
			<point x="219" y="555" type="line"/>
			<point x="520" y="555" type="line"/>
			<point x="525" y="577" type="line"/>
			<point x="224" y="577" type="line"/>
		</contour>
		<contour>
			<point x="337" y="-12" type="curve" smooth="yes"/>
			<point x="397" y="-12"/>
			<point x="437" y="44"/>
			<point x="468" y="95" type="curve"/>
			<point x="456" y="105" type="line"/>
			<point x="421" y="65"/>
			<point x="388" y="39"/>
			<point x="364" y="39" type="curve" smooth="yes"/>
			<point x="354" y="39"/>
			<point x="348" y="45"/>
			<point x="348" y="55" type="curve" smooth="yes"/>
			<point x="348" y="69"/>
			<point x="351" y="81"/>
			<point x="355" y="102" type="curve" smooth="yes"/>
			<point x="486" y="736" type="line"/>
			<point x="477" y="744" type="line"/>
			<point x="330" y="702" type="line"/>
			<point x="327" y="688" type="line"/>
			<point x="427" y="671" type="line"/>
			<point x="417" y="694" type="line"/>
			<point x="360" y="415" type="line"/>
			<point x="357" y="409" type="line"/>
			<point x="299" y="129" type="line"/>
			<point x="292" y="94" type="line" smooth="yes"/>
			<point x="285" y="60"/>
			<point x="284" y="47"/>
			<point x="284" y="35" type="curve" smooth="yes"/>
			<point x="284" y="5"/>
			<point x="309" y="-12"/>
		</contour>
	</outline>
</glyph>
<glyph name="eogonek" format="2">
	<unicode hex="0119"/>
	<advance width="378"/>
	<outline>
		<contour>
			<point x="182" y="-220" type="curve" smooth="yes"/>
			<point x="211" y="-220"/>
			<point x="247" y="-207"/>
			<point x="273" y="-174" type="curve"/>
			<point x="267" y="-163" type="line"/>
			<point x="245" y="-173"/>
			<point x="226" y="-176"/>
			<point x="213" y="-176" type="curve" smooth="yes"/>
			<point x="178" y="-176"/>
			<point x="152" y="-155"/>
			<point x="152" y="-119" type="curve" smooth="yes"/>
			<point x="152" y="-76"/>
			<point x="187" y="-32"/>
			<point x="257" y="16" type="curve" smooth="yes"/>
			<point x="288" y="37"/>
			<point x="314" y="68"/>
			<point x="334" y="103" type="curve"/>
			<point x="322" y="111" type="line"/>
			<point x="294" y="79"/>
			<point x="243" y="38"/>
			<point x="193" y="38" type="curve" smooth="yes"/>
			<point x="136" y="38"/>
			<point x="89" y="76"/>
			<point x="89" y="154" type="curve" smooth="yes"/>
			<point x="89" y="316"/>
			<point x="200" y="444"/>
			<point x="270" y="444" type="curve" smooth="yes"/>
			<point x="301" y="444"/>
			<point x="314" y="419"/>
			<point x="314" y="388" type="curve" smooth="yes"/>
			<point x="314" y="318"/>
			<point x="255" y="245"/>
			<point x="69" y="194" type="curve"/>
			<point x="73" y="176" type="line"/>
			<point x="318" y="242"/>
			<point x="372" y="318"/>
			<point x="372" y="388" type="curve" smooth="yes"/>
			<point x="372" y="437"/>
			<point x="339" y="464"/>
			<point x="281" y="464" type="curve" smooth="yes"/>
			<point x="163" y="464"/>
			<point x="26" y="314"/>
			<point x="26" y="137" type="curve" smooth="yes"/>
			<point x="26" y="40"/>
			<point x="82" y="-12"/>
			<point x="163" y="-12" type="curve" smooth="yes"/>
			<point x="176" y="-12"/>
			<point x="192" y="-10"/>
			<point x="203" y="-6" type="curve"/>
			<point x="203" y="-7" type="line"/>
			<point x="150" y="-37"/>
			<point x="103" y="-83"/>
			<point x="103" y="-145" type="curve" smooth="yes"/>
			<point x="103" y="-187"/>
			<point x="137" y="-220"/>
		</contour>
	</outline>
	<anchor name="aboveLC" x="261" y="472"/>
	<anchor name="belowLC" x="146" y="-20"/>
</glyph>
<glyph name="iogonek" format="2">
	<unicode hex="012F"/>
	<advance width="284"/>
	<outline>
		<contour>
			<point x="117" y="-220" type="curve" smooth="yes"/>
			<point x="146" y="-220"/>
			<point x="182" y="-207"/>
			<point x="207" y="-174" type="curve"/>
			<point x="201" y="-163" type="line"/>
			<point x="179" y="-173"/>
			<point x="160" y="-176"/>
			<point x="148" y="-176" type="curve" smooth="yes"/>
			<point x="113" y="-176"/>
			<point x="87" y="-155"/>
			<point x="87" y="-119" type="curve" smooth="yes"/>
			<point x="87" y="-77"/>
			<point x="118" y="-30"/>
			<point x="167" y="0" type="curve" smooth="yes"/>
			<point x="204" y="22"/>
			<point x="233" y="58"/>
			<point x="255" y="95" type="curve"/>
			<point x="243" y="105" type="line"/>
			<point x="208" y="65"/>
			<point x="172" y="39"/>
			<point x="153" y="39" type="curve" smooth="yes"/>
			<point x="144" y="39"/>
			<point x="135" y="46"/>
			<point x="135" y="58" type="curve" smooth="yes"/>
			<point x="135" y="68"/>
			<point x="139" y="86"/>
			<point x="143" y="107" type="curve" smooth="yes"/>
			<point x="216" y="456" type="line"/>
			<point x="207" y="464" type="line"/>
			<point x="59" y="422" type="line"/>
			<point x="57" y="408" type="line"/>
			<point x="172" y="389" type="line"/>
			<point x="148" y="423" type="line"/>
			<point x="78" y="93" type="line" smooth="yes"/>
			<point x="71" y="58"/>
			<point x="70" y="44"/>
			<point x="70" y="32" type="curve" smooth="yes"/>
			<point x="70" y="2"/>
			<point x="96" y="-12"/>
			<point x="120" y="-12" type="curve" smooth="yes"/>
			<point x="123" y="-12"/>
			<point x="126" y="-12"/>
			<point x="129" y="-11" type="curve"/>
			<point x="129" y="-12" type="line"/>
			<point x="79" y="-41"/>
			<point x="37" y="-86"/>
			<point x="37" y="-145" type="curve" smooth="yes"/>
			<point x="37" y="-187"/>
			<point x="71" y="-220"/>
		</contour>
		<contour>
			<point x="209" y="573" type="curve" smooth="yes"/>
			<point x="239" y="573"/>
			<point x="267" y="599"/>
			<point x="267" y="635" type="curve" smooth="yes"/>
			<point x="267" y="661"/>
			<point x="250" y="679"/>
			<point x="224" y="679" type="curve" smooth="yes"/>
			<point x="194" y="679"/>
			<point x="167" y="651"/>
			<point x="167" y="615" type="curve" smooth="yes"/>
			<point x="167" y="590"/>
			<point x="185" y="573"/>
		</contour>
	</outline>
</glyph>
<glyph name="eng" format="2">
	<unicode hex="014B"/>
	<advance width="533"/>
	<outline>
		<contour>
			<point x="69" y="-8" type="line"/>
			<point x="129" y="0" type="line"/>
			<point x="139" y="68"/>
			<point x="149" y="134"/>
			<point x="163" y="200" type="curve" smooth="yes"/>
			<point x="191" y="339" type="line"/>
			<point x="192" y="345" type="line"/>
			<point x="216" y="456" type="line"/>
			<point x="207" y="464" type="line"/>
			<point x="59" y="422" type="line"/>
			<point x="57" y="408" type="line"/>
			<point x="157" y="392" type="line"/>
			<point x="144" y="401" type="line"/>
			<point x="61" y="0" type="line"/>
		</contour>
		<contour>
			<point x="153" y="-263" type="line"/>
			<point x="193" y="-255"/>
			<point x="226" y="-238"/>
			<point x="254" y="-215" type="curve" smooth="yes"/>
			<point x="314" y="-164"/>
			<point x="347" y="-84"/>
			<point x="364" y="-6" type="curve" smooth="yes"/>
			<point x="430" y="305" type="line" smooth="yes"/>
			<point x="436" y="335"/>
			<point x="442" y="366"/>
			<point x="442" y="396" type="curve" smooth="yes"/>
			<point x="442" y="440"/>
			<point x="421" y="464"/>
			<point x="382" y="464" type="curve" smooth="yes"/>
			<point x="319" y="464"/>
			<point x="243" y="404"/>
			<point x="179" y="338" type="curve"/>
			<point x="173" y="338" type="line"/>
			<point x="175" y="319" type="line"/>
			<point x="250" y="381"/>
			<point x="303" y="411"/>
			<point x="343" y="411" type="curve" smooth="yes"/>
			<point x="362" y="411"/>
			<point x="378" y="398"/>
			<point x="378" y="372" type="curve" smooth="yes"/>
			<point x="378" y="349"/>
			<point x="370" y="309"/>
			<point x="363" y="278" type="curve" smooth="yes"/>
			<point x="306" y="16" type="line" smooth="yes"/>
			<point x="289" y="-63"/>
			<point x="272" y="-142"/>
			<point x="226" y="-194" type="curve" smooth="yes"/>
			<point x="206" y="-216"/>
			<point x="181" y="-234"/>
			<point x="148" y="-247" type="curve"/>
		</contour>
	</outline>
</glyph>
<glyph name="Uogonek" format="2">
	<unicode hex="0172"/>
	<advance width="635"/>
	<outline>
		<contour>
			<point x="109" y="164" type="curve" smooth="yes"/>
			<point x="109" y="26"/>
			<point x="194" y="-16"/>
			<point x="289" y="-16" type="curve" smooth="yes"/>
			<point x="315" y="-16"/>
			<point x="341" y="-13"/>
			<point x="362" y="-7" type="curve"/>
			<point x="362" y="-8" type="line"/>
			<point x="309" y="-37"/>
			<point x="262" y="-83"/>
			<point x="262" y="-145" type="curve" smooth="yes"/>
			<point x="262" y="-187"/>
			<point x="296" y="-220"/>
			<point x="341" y="-220" type="curve" smooth="yes"/>
			<point x="370" y="-220"/>
			<point x="406" y="-207"/>
			<point x="432" y="-174" type="curve"/>
			<point x="425" y="-163" type="line"/>
			<point x="404" y="-173"/>
			<point x="385" y="-176"/>
			<point x="372" y="-176" type="curve" smooth="yes"/>
			<point x="337" y="-176"/>
			<point x="311" y="-155"/>
			<point x="311" y="-119" type="curve" smooth="yes"/>
			<point x="311" y="-76"/>
			<point x="345" y="-31"/>
			<point x="414" y="14" type="curve" smooth="yes"/>
			<point x="473" y="49"/>
			<point x="513" y="121"/>
			<point x="535" y="241" type="curve" smooth="yes"/>
			<point x="614" y="670" type="line"/>
			<point x="587" y="670" type="line"/>
			<point x="510" y="251" type="line" smooth="yes"/>
			<point x="478" y="78"/>
			<point x="412" y="29"/>
			<point x="306" y="29" type="curve" smooth="yes"/>
			<point x="232" y="29"/>
			<point x="176" y="71"/>
			<point x="176" y="172" type="curve" smooth="yes"/>
			<point x="176" y="201"/>
			<point x="181" y="238"/>
			<point x="189" y="279" type="curve" smooth="yes"/>
			<point x="260" y="670" type="line"/>
			<point x="191" y="670" type="line"/>
			<point x="173" y="566"/>
			<point x="163" y="490"/>
			<point x="139" y="362" type="curve" smooth="yes"/>
			<point x="124" y="285" type="line" smooth="yes"/>
			<point x="115" y="239"/>
			<point x="109" y="198"/>
		</contour>
		<contour>
			<point x="117" y="654" type="line"/>
			<point x="211" y="642" type="line"/>
			<point x="233" y="642" type="line"/>
			<point x="339" y="654" type="line"/>
			<point x="342" y="670" type="line"/>
			<point x="120" y="670" type="line"/>
		</contour>
		<contour>
			<point x="500" y="654" type="line"/>
			<point x="589" y="644" type="line"/>
			<point x="602" y="644" type="line"/>
			<point x="686" y="654" type="line"/>
			<point x="689" y="670" type="line"/>
			<point x="503" y="670" type="line"/>
		</contour>
	</outline>
	<anchor name="aboveUC" x="412" y="690"/>
	<anchor name="belowLC" x="288" y="-20"/>
</glyph>
<glyph name="dotlessj" format="2">
	<unicode hex="0237"/>
	<advance width="246"/>
	<outline>
		<contour>
			<point x="-99" y="-263" type="line"/>
			<point x="-59" y="-255"/>
			<point x="-26" y="-238"/>
			<point x="2" y="-215" type="curve" smooth="yes"/>
			<point x="62" y="-164"/>
			<point x="96" y="-84"/>
			<point x="112" y="-6" type="curve" smooth="yes"/>
			<point x="208" y="456" type="line"/>
			<point x="200" y="464" type="line"/>
			<point x="52" y="422" type="line"/>
			<point x="50" y="408" type="line"/>
			<point x="149" y="392" type="line"/>
			<point x="135" y="403" type="line"/>
			<point x="54" y="16" type="line" smooth="yes"/>
			<point x="37" y="-63"/>
			<point x="20" y="-142"/>
			<point x="-26" y="-194" type="curve" smooth="yes"/>
			<point x="-46" y="-216"/>
			<point x="-71" y="-234"/>
			<point x="-104" y="-247" type="curve"/>
		</contour>
	</outline>
	<anchor name="aboveLC" x="170" y="472"/>
</glyph>
<glyph name="j.sups" format="2">
	<unicode hex="02B2"/>
	<advance width="175"/>
	<outline>
		<contour>
			<point x="201" y="802" type="curve" smooth="yes"/>
			<point x="225" y="802"/>
			<point x="247" y="821"/>
			<point x="247" y="847" type="curve" smooth="yes"/>
			<point x="247" y="868"/>
			<point x="232" y="881"/>
			<point x="211" y="881" type="curve" smooth="yes"/>
			<point x="186" y="881"/>
			<point x="165" y="862"/>
			<point x="165" y="834" type="curve" smooth="yes"/>
			<point x="165" y="815"/>
			<point x="181" y="802"/>
		</contour>
		<contour>
			<point x="-1" y="264" type="line"/>
			<point x="35" y="270"/>
			<point x="62" y="282"/>
			<point x="82" y="301" type="curve" smooth="yes"/>
			<point x="119" y="333"/>
			<point x="139" y="380"/>
			<point x="150" y="433" type="curve" smooth="yes"/>
			<point x="210" y="717" type="line"/>
			<point x="203" y="723" type="line"/>
			<point x="93" y="694" type="line"/>
			<point x="91" y="684" type="line"/>
			<point x="157" y="673" type="line"/>
			<point x="146" y="680" type="line"/>
			<point x="96" y="440" type="line" smooth="yes"/>
			<point x="84" y="387"/>
			<point x="74" y="340"/>
			<point x="47" y="309" type="curve" smooth="yes"/>
			<point x="35" y="295"/>
			<point x="18" y="284"/>
			<point x="-4" y="275" type="curve"/>
		</contour>
	</outline>
</glyph>
<glyph name="r.sups" format="2">
	<unicode hex="02B3"/>
	<advance width="275"/>
	<outline>
		<contour>
			<point x="191" y="575" type="line"/>
			<point x="216" y="624"/>
			<point x="243" y="667"/>
			<point x="275" y="691" type="curve"/>
			<point x="275" y="695" type="line"/>
			<point x="259" y="693" type="line"/>
			<point x="283" y="669"/>
			<point x="296" y="661"/>
			<point x="314" y="661" type="curve" smooth="yes"/>
			<point x="336" y="661"/>
			<point x="352" y="677"/>
			<point x="352" y="696" type="curve"/>
			<point x="345" y="716"/>
			<point x="327" y="722"/>
			<point x="310" y="722" type="curve" smooth="yes"/>
			<point x="267" y="722"/>
			<point x="231" y="680"/>
			<point x="192" y="599" type="curve"/>
			<point x="185" y="599" type="line"/>
		</contour>
		<contour>
			<point x="110" y="427" type="line"/>
			<point x="117" y="421" type="line"/>
			<point x="167" y="426" type="line"/>
			<point x="202" y="601" type="line"/>
			<point x="200" y="605" type="line"/>
			<point x="222" y="716" type="line"/>
			<point x="215" y="722" type="line"/>
			<point x="109" y="693" type="line"/>
			<point x="107" y="683" type="line"/>
			<point x="173" y="672" type="line"/>
			<point x="163" y="678" type="line"/>
		</contour>
	</outline>
</glyph>
<glyph name="verticallinemod" format="2">
	<unicode hex="02C8"/>
	<advance width="96"/>
	<outline>
		<contour>
			<point x="93" y="556" type="line"/>
			<point x="133" y="556" type="line"/>
			<point x="175" y="739" type="line"/>
			<point x="119" y="739" type="line"/>
		</contour>
	</outline>
</glyph>
<glyph name="x.sups" format="2">
	<unicode hex="02E3"/>
	<advance width="333"/>
	<outline>
		<contour>
			<point x="229" y="472" type="line" smooth="yes"/>
			<point x="242" y="429"/>
			<point x="259" y="419"/>
			<point x="285" y="419" type="curve" smooth="yes"/>
			<point x="320" y="419"/>
			<point x="351" y="455"/>
			<point x="374" y="500" type="curve"/>
			<point x="364" y="505" type="line"/>
			<point x="344" y="478"/>
			<point x="326" y="457"/>
			<point x="309" y="457" type="curve" smooth="yes"/>
			<point x="296" y="457"/>
			<point x="289" y="474"/>
			<point x="284" y="490" type="curve" smooth="yes"/>
			<point x="251" y="598" type="line"/>
			<point x="249" y="602" type="line"/>
			<point x="228" y="669" type="line" smooth="yes"/>
			<point x="216" y="707"/>
			<point x="209" y="723"/>
			<point x="179" y="723" type="curve" smooth="yes"/>
			<point x="146" y="723"/>
			<point x="121" y="691"/>
			<point x="102" y="643" type="curve"/>
			<point x="112" y="638" type="line"/>
			<point x="130" y="672"/>
			<point x="146" y="684"/>
			<point x="154" y="684" type="curve" smooth="yes"/>
			<point x="165" y="684"/>
			<point x="168" y="674"/>
			<point x="174" y="651" type="curve" smooth="yes"/>
			<point x="207" y="547" type="line"/>
			<point x="209" y="542" type="line"/>
		</contour>
		<contour>
			<point x="52" y="464" type="curve"/>
			<point x="58" y="430"/>
			<point x="85" y="419"/>
			<point x="105" y="419" type="curve" smooth="yes"/>
			<point x="128" y="419"/>
			<point x="142" y="429"/>
			<point x="159" y="452" type="curve" smooth="yes"/>
			<point x="177" y="474"/>
			<point x="200" y="512"/>
			<point x="227" y="568" type="curve"/>
			<point x="221" y="581" type="line"/>
			<point x="192" y="526"/>
			<point x="166" y="487"/>
			<point x="145" y="460" type="curve" smooth="yes"/>
			<point x="135" y="445"/>
			<point x="125" y="441"/>
			<point x="118" y="440" type="curve"/>
			<point x="118" y="434" type="line"/>
			<point x="127" y="434" type="line"/>
			<point x="117" y="460" type="line" smooth="yes"/>
			<point x="108" y="483"/>
			<point x="96" y="489"/>
			<point x="81" y="489" type="curve" smooth="yes"/>
			<point x="67" y="489"/>
			<point x="54" y="481"/>
		</contour>
		<contour>
			<point x="236" y="561" type="line"/>
			<point x="266" y="616"/>
			<point x="292" y="656"/>
			<point x="312" y="682" type="curve" smooth="yes"/>
			<point x="324" y="697"/>
			<point x="332" y="701"/>
			<point x="339" y="702" type="curve"/>
			<point x="339" y="709" type="line"/>
			<point x="327" y="709" type="line"/>
			<point x="341" y="682" type="line" smooth="yes"/>
			<point x="350" y="664"/>
			<point x="360" y="655"/>
			<point x="378" y="655" type="curve" smooth="yes"/>
			<point x="392" y="655"/>
			<point x="403" y="662"/>
			<point x="406" y="678" type="curve"/>
			<point x="400" y="711"/>
			<point x="374" y="723"/>
			<point x="353" y="723" type="curve" smooth="yes"/>
			<point x="331" y="723"/>
			<point x="317" y="712"/>
			<point x="299" y="690" type="curve" smooth="yes"/>
			<point x="282" y="667"/>
			<point x="259" y="630"/>
			<point x="231" y="574" type="curve"/>
		</contour>
	</outline>
</glyph>
<glyph name="brevecmb" format="2">
	<unicode hex="0306"/>
	<outline>
		<contour>
			<point x="119" y="540" type="curve" smooth="yes"/>
			<point x="201" y="540"/>
			<point x="254" y="603"/>
			<point x="277" y="675" type="curve"/>
			<point x="260" y="681" type="line"/>
			<point x="229" y="629"/>
			<point x="191" y="593"/>
			<point x="127" y="593" type="curve" smooth="yes"/>
			<point x="63" y="593"/>
			<point x="37" y="629"/>
			<point x="26" y="681" type="curve"/>
			<point x="6" y="673" type="line"/>
			<point x="6" y="600"/>
			<point x="36" y="540"/>
		</contour>
	</outline>
	<anchor name="_aboveLC" x="100" y="472"/>
	<anchor name="aboveLC" x="157" y="681"/>
</glyph>
<glyph name="cedillacmb" format="2">
	<unicode hex="0327"/>
	<outline>
		<contour>
			<point x="-85" y="-77" type="line"/>
			<point x="-44" y="-83"/>
			<point x="-26" y="-100"/>
			<point x="-26" y="-128" type="curve" smooth="yes"/>
			<point x="-26" y="-166"/>
			<point x="-52" y="-194"/>
			<point x="-99" y="-194" type="curve" smooth="yes"/>
			<point x="-115" y="-194"/>
			<point x="-130" y="-190"/>
			<point x="-143" y="-188" type="curve"/>
			<point x="-148" y="-207" type="line"/>
			<point x="-135" y="-212"/>
			<point x="-116" y="-218"/>
			<point x="-89" y="-218" type="curve" smooth="yes"/>
			<point x="-23" y="-218"/>
			<point x="24" y="-186"/>
			<point x="24" y="-130" type="curve" smooth="yes"/>
			<point x="24" y="-84"/>
			<point x="-19" y="-55"/>
			<point x="-69" y="-52" type="curve"/>
			<point x="-60" y="-68" type="line"/>
			<point x="-38" y="0" type="line"/>
			<point x="-59" y="0" type="line"/>
		</contour>
	</outline>
	<anchor name="_baseLC" x="-49" y="0"/>
</glyph>
<glyph name="verticallinebelowcmb" format="2">
	<unicode hex="0329"/>
	<outline>
		<contour>
			<point x="-125" y="-243" type="line"/>
			<point x="-69" y="-243" type="line"/>
			<point x="-44" y="-59" type="line"/>
			<point x="-83" y="-59" type="line"/>
		</contour>
	</outline>
	<anchor name="_belowLC" x="-53" y="-20"/>
	<anchor name="belowLC" x="-101" y="-243"/>
</glyph>
<glyph name="epsilon" format="2">
	<unicode hex="03B5"/>
	<advance width="378"/>
	<outline>
		<contour>
			<point x="170" y="-12" type="curve" smooth="yes"/>
			<point x="235" y="-12"/>
			<point x="296" y="13"/>
			<point x="348" y="73" type="curve"/>
			<point x="336" y="85" type="line"/>
			<point x="276" y="39"/>
			<point x="230" y="29"/>
			<point x="188" y="29" type="curve" smooth="yes"/>
			<point x="123" y="29"/>
			<point x="85" y="56"/>
			<point x="85" y="113" type="curve" smooth="yes"/>
			<point x="85" y="152"/>
			<point x="111" y="224"/>
			<point x="228" y="224" type="curve" smooth="yes"/>
			<point x="253" y="224"/>
			<point x="264" y="223"/>
			<point x="275" y="222" type="curve"/>
			<point x="283" y="263" type="line"/>
			<point x="266" y="261"/>
			<point x="248" y="261"/>
			<point x="231" y="261" type="curve" smooth="yes"/>
			<point x="166" y="261"/>
			<point x="132" y="291"/>
			<point x="132" y="336" type="curve" smooth="yes"/>
			<point x="132" y="412"/>
			<point x="191" y="447"/>
			<point x="271" y="447" type="curve" smooth="yes"/>
			<point x="283" y="447"/>
			<point x="293" y="446"/>
			<point x="307" y="443" type="curve"/>
			<point x="286" y="456" type="line"/>
			<point x="240" y="448" type="line"/>
			<point x="287" y="396" type="line" smooth="yes"/>
			<point x="303" y="378"/>
			<point x="317" y="371"/>
			<point x="333" y="371" type="curve" smooth="yes"/>
			<point x="354" y="371"/>
			<point x="371" y="385"/>
			<point x="376" y="412" type="curve"/>
			<point x="365" y="438"/>
			<point x="328" y="464"/>
			<point x="251" y="464" type="curve" smooth="yes"/>
			<point x="143" y="464"/>
			<point x="72" y="405"/>
			<point x="72" y="328" type="curve" smooth="yes"/>
			<point x="72" y="279"/>
			<point x="100" y="228"/>
			<point x="179" y="228" type="curve"/>
			<point x="191" y="240" type="line"/>
			<point x="96" y="239"/>
			<point x="21" y="189"/>
			<point x="21" y="100" type="curve" smooth="yes"/>
			<point x="21" y="28"/>
			<point x="86" y="-12"/>
		</contour>
	</outline>
	<anchor name="aboveLC" x="239" y="472"/>
	<anchor name="belowLC" x="181" y="-20"/>
</glyph>
<glyph name="zeta" format="2">
	<unicode hex="03B6"/>
	<advance width="342"/>
	<outline>
		<contour>
			<point x="214" y="-196" type="curve"/>
			<point x="230" y="-204" type="line"/>
			<point x="276" y="-151"/>
			<point x="320" y="-105"/>
			<point x="320" y="-46" type="curve" smooth="yes"/>
			<point x="320" y="13"/>
			<point x="262" y="34"/>
			<point x="199" y="58" type="curve" smooth="yes"/>
			<point x="127" y="86"/>
			<point x="92" y="110"/>
			<point x="92" y="175" type="curve" smooth="yes"/>
			<point x="92" y="269"/>
			<point x="155" y="418"/>
			<point x="452" y="710" type="curve"/>
			<point x="452" y="732" type="line"/>
			<point x="154" y="752" type="line"/>
			<point x="142" y="701" type="line"/>
			<point x="435" y="706" type="line"/>
			<point x="435" y="718" type="line"/>
			<point x="136" y="449"/>
			<point x="29" y="279"/>
			<point x="29" y="156" type="curve" smooth="yes"/>
			<point x="29" y="79"/>
			<point x="80" y="34"/>
			<point x="154" y="8" type="curve" smooth="yes"/>
			<point x="212" y="-14"/>
			<point x="262" y="-30"/>
			<point x="262" y="-72" type="curve" smooth="yes"/>
			<point x="262" y="-107"/>
			<point x="237" y="-151"/>
		</contour>
	</outline>
</glyph>
<glyph name="eta" format="2">
	<unicode hex="03B7"/>
	<advance width="486"/>
	<outline>
		<contour>
			<point x="41" y="-2" type="curve"/>
			<point x="49" y="-12" type="line"/>
			<point x="112" y="-2" type="line"/>
			<point x="184" y="329" type="line"/>
			<point x="200" y="402"/>
			<point x="179" y="459"/>
			<point x="127" y="459" type="curve" smooth="yes"/>
			<point x="90" y="459"/>
			<point x="64" y="440"/>
			<point x="22" y="396" type="curve"/>
			<point x="30" y="384" type="line"/>
			<point x="55" y="398"/>
			<point x="73" y="406"/>
			<point x="93" y="406" type="curve" smooth="yes"/>
			<point x="127" y="406"/>
			<point x="140" y="361"/>
			<point x="124" y="303" type="curve" smooth="yes"/>
			<point x="96" y="201"/>
			<point x="69" y="100"/>
		</contour>
		<contour>
			<point x="251" y="-204" type="line"/>
			<point x="258" y="-212" type="line"/>
			<point x="327" y="-199" type="line"/>
			<point x="396" y="141" type="line" smooth="yes"/>
			<point x="412" y="222"/>
			<point x="429" y="291"/>
			<point x="429" y="349" type="curve" smooth="yes"/>
			<point x="429" y="414"/>
			<point x="409" y="459"/>
			<point x="348" y="459" type="curve" smooth="yes"/>
			<point x="295" y="459"/>
			<point x="239" y="418"/>
			<point x="172" y="334" type="curve"/>
			<point x="163" y="334" type="line"/>
			<point x="163" y="306" type="line"/>
			<point x="216" y="368"/>
			<point x="271" y="405"/>
			<point x="318" y="405" type="curve" smooth="yes"/>
			<point x="352" y="405"/>
			<point x="374" y="387"/>
			<point x="374" y="346" type="curve" smooth="yes"/>
			<point x="374" y="303"/>
			<point x="346" y="185"/>
			<point x="296" y="-21" type="curve" smooth="yes"/>
		</contour>
	</outline>
	<anchor name="aboveLC" x="290" y="472"/>
	<anchor name="belowLC" x="71" y="-20"/>
</glyph>
<glyph name="chi" format="2">
	<unicode hex="03C7"/>
	<advance width="451"/>
	<outline>
		<contour>
			<point x="-40" y="-202" type="line"/>
			<point x="19" y="-210" type="line"/>
			<point x="219" y="100" type="line"/>
			<point x="231" y="108" type="line"/>
			<point x="471" y="436" type="line"/>
			<point x="467" y="449" type="line"/>
			<point x="408" y="457" type="line"/>
			<point x="212" y="160" type="line"/>
			<point x="199" y="152" type="line"/>
			<point x="-44" y="-190" type="line"/>
		</contour>
		<contour>
			<point x="201" y="133" type="line"/>
			<point x="227" y="152" type="line"/>
			<point x="217" y="152" type="line"/>
			<point x="166" y="363" type="line" smooth="yes"/>
			<point x="150" y="431"/>
			<point x="126" y="461"/>
			<point x="83" y="461" type="curve" smooth="yes"/>
			<point x="47" y="461"/>
			<point x="21" y="434"/>
			<point x="7" y="404" type="curve"/>
			<point x="13" y="392" type="line"/>
			<point x="32" y="401"/>
			<point x="50" y="408"/>
			<point x="70" y="408" type="curve" smooth="yes"/>
			<point x="105" y="408"/>
			<point x="128" y="382"/>
			<point x="142" y="334" type="curve" smooth="yes"/>
		</contour>
		<contour>
			<point x="350" y="-208" type="curve" smooth="yes"/>
			<point x="382" y="-208"/>
			<point x="418" y="-174"/>
			<point x="433" y="-137" type="curve"/>
			<point x="425" y="-128" type="line"/>
			<point x="405" y="-142"/>
			<point x="383" y="-151"/>
			<point x="363" y="-151" type="curve" smooth="yes"/>
			<point x="329" y="-151"/>
			<point x="306" y="-129"/>
			<point x="291" y="-81" type="curve" smooth="yes"/>
			<point x="228" y="128" type="line"/>
			<point x="199" y="108" type="line"/>
			<point x="213" y="108" type="line"/>
			<point x="267" y="-110" type="line" smooth="yes"/>
			<point x="284" y="-178"/>
			<point x="303" y="-208"/>
		</contour>
	</outline>
</glyph>
<glyph name="digamma" format="2">
	<unicode hex="03DD"/>
	<advance width="411"/>
	<outline>
		<contour>
			<point x="10" y="-204" type="line"/>
			<point x="16" y="-212" type="line"/>
			<point x="85" y="-198" type="line"/>
			<point x="131" y="96" type="line"/>
			<point x="209" y="452" type="line"/>
			<point x="167" y="424" type="line"/>
			<point x="409" y="415" type="line"/>
			<point x="420" y="468" type="line"/>
			<point x="138" y="456" type="line"/>
			<point x="80" y="96" type="line"/>
		</contour>
		<contour>
			<point x="116" y="156" type="line"/>
			<point x="339" y="143" type="line"/>
			<point x="349" y="192" type="line"/>
			<point x="122" y="188" type="line"/>
		</contour>
	</outline>
	<anchor name="aboveLC" x="269" y="472"/>
</glyph>
<glyph name="Zhe" format="2">
	<unicode hex="0416"/>
	<advance width="875"/>
	<outline>
		<contour>
			<point x="43" y="-8" type="curve" smooth="yes"/>
			<point x="105" y="-8"/>
			<point x="127" y="9"/>
			<point x="157" y="57" type="curve" smooth="yes"/>
			<point x="264" y="231" type="line" smooth="yes"/>
			<point x="312" y="308"/>
			<point x="345" y="330"/>
			<point x="418" y="330" type="curve" smooth="yes"/>
			<point x="457" y="330" type="line"/>
			<point x="461" y="353" type="line"/>
			<point x="425" y="353" type="line" smooth="yes"/>
			<point x="344" y="353"/>
			<point x="310" y="378"/>
			<point x="285" y="489" type="curve" smooth="yes"/>
			<point x="250" y="644"/>
			<point x="226" y="686"/>
			<point x="160" y="686" type="curve"/>
			<point x="132" y="682"/>
			<point x="104" y="664"/>
			<point x="104" y="631" type="curve" smooth="yes"/>
			<point x="104" y="607"/>
			<point x="128" y="591"/>
			<point x="154" y="591" type="curve" smooth="yes"/>
			<point x="185" y="591"/>
			<point x="209" y="605"/>
			<point x="227" y="614" type="curve"/>
			<point x="206" y="641" type="line"/>
			<point x="235" y="596"/>
			<point x="244" y="558"/>
			<point x="264" y="477" type="curve" smooth="yes"/>
			<point x="289" y="371"/>
			<point x="321" y="345"/>
			<point x="400" y="333" type="curve"/>
			<point x="395" y="344" type="line"/>
			<point x="297" y="343"/>
			<point x="240" y="303"/>
			<point x="181" y="214" type="curve" smooth="yes"/>
			<point x="49" y="16" type="line"/>
			<point x="89" y="26" type="line"/>
			<point x="-16" y="16" type="line"/>
			<point x="-18" y="0" type="line"/>
			<point x="-1" y="-5"/>
			<point x="15" y="-8"/>
		</contour>
		<contour>
			<point x="287" y="0" type="line"/>
			<point x="518" y="0" type="line"/>
			<point x="521" y="16" type="line"/>
			<point x="415" y="28" type="line"/>
			<point x="390" y="28" type="line"/>
			<point x="290" y="16" type="line"/>
		</contour>
		<contour>
			<point x="366" y="0" type="line"/>
			<point x="437" y="0" type="line"/>
			<point x="453" y="103"/>
			<point x="469" y="205"/>
			<point x="489" y="308" type="curve" smooth="yes"/>
			<point x="557" y="670" type="line"/>
			<point x="486" y="670" type="line"/>
			<point x="470" y="567"/>
			<point x="453" y="462"/>
			<point x="434" y="359" type="curve" smooth="yes"/>
		</contour>
		<contour>
			<point x="506" y="642" type="line"/>
			<point x="532" y="642" type="line"/>
			<point x="633" y="654" type="line"/>
			<point x="636" y="670" type="line"/>
			<point x="404" y="670" type="line"/>
			<point x="401" y="654" type="line"/>
		</contour>
		<contour>
			<point x="755" y="-8" type="curve" smooth="yes"/>
			<point x="783" y="-8"/>
			<point x="800" y="-5"/>
			<point x="819" y="0" type="curve"/>
			<point x="821" y="16" type="line"/>
			<point x="721" y="26" type="line"/>
			<point x="759" y="16" type="line"/>
			<point x="691" y="214" type="line" smooth="yes"/>
			<point x="661" y="302"/>
			<point x="627" y="343"/>
			<point x="529" y="344" type="curve"/>
			<point x="529" y="332" type="line"/>
			<point x="612" y="344"/>
			<point x="645" y="371"/>
			<point x="708" y="477" type="curve" smooth="yes"/>
			<point x="756" y="557"/>
			<point x="776" y="596"/>
			<point x="823" y="641" type="curve"/>
			<point x="791" y="614" type="line"/>
			<point x="805" y="605"/>
			<point x="831" y="591"/>
			<point x="862" y="591" type="curve" smooth="yes"/>
			<point x="894" y="591"/>
			<point x="920" y="612"/>
			<point x="920" y="646" type="curve" smooth="yes"/>
			<point x="920" y="668"/>
			<point x="898" y="682"/>
			<point x="880" y="686" type="curve"/>
			<point x="811" y="686"/>
			<point x="778" y="644"/>
			<point x="688" y="489" type="curve" smooth="yes"/>
			<point x="623" y="378"/>
			<point x="592" y="353"/>
			<point x="512" y="353" type="curve" smooth="yes"/>
			<point x="472" y="353" type="line"/>
			<point x="468" y="330" type="line"/>
			<point x="502" y="330" type="line" smooth="yes"/>
			<point x="575" y="330"/>
			<point x="597" y="307"/>
			<point x="620" y="231" type="curve" smooth="yes"/>
			<point x="670" y="57" type="line" smooth="yes"/>
			<point x="684" y="9"/>
			<point x="693" y="-8"/>
		</contour>
	</outline>
	<anchor name="aboveUC" x="519" y="690"/>
</glyph>
<glyph name="Ka" format="2">
	<unicode hex="041A"/>
	<advance width="605"/>
	<outline>
		<contour>
			<point x="401" y="57" type="line" smooth="yes"/>
			<point x="415" y="9"/>
			<point x="423" y="-8"/>
			<point x="486" y="-8" type="curve" smooth="yes"/>
			<point x="514" y="-8"/>
			<point x="531" y="-5"/>
			<point x="549" y="0" type="curve"/>
			<point x="551" y="16" type="line"/>
			<point x="452" y="26" type="line"/>
			<point x="490" y="16" type="line"/>
			<point x="422" y="214" type="line" smooth="yes"/>
			<point x="392" y="302"/>
			<point x="358" y="343"/>
			<point x="260" y="344" type="curve"/>
			<point x="260" y="332" type="line"/>
			<point x="342" y="344"/>
			<point x="375" y="371"/>
			<point x="439" y="477" type="curve" smooth="yes"/>
			<point x="486" y="557"/>
			<point x="507" y="596"/>
			<point x="554" y="641" type="curve"/>
			<point x="522" y="614" type="line"/>
			<point x="535" y="605"/>
			<point x="557" y="591"/>
			<point x="589" y="591" type="curve" smooth="yes"/>
			<point x="620" y="591"/>
			<point x="651" y="612"/>
			<point x="651" y="646" type="curve" smooth="yes"/>
			<point x="651" y="668"/>
			<point x="629" y="682"/>
			<point x="611" y="686" type="curve"/>
			<point x="542" y="686"/>
			<point x="509" y="644"/>
			<point x="418" y="489" type="curve" smooth="yes"/>
			<point x="353" y="378"/>
			<point x="323" y="353"/>
			<point x="242" y="353" type="curve" smooth="yes"/>
			<point x="191" y="353" type="line"/>
			<point x="187" y="330" type="line"/>
			<point x="233" y="330" type="line" smooth="yes"/>
			<point x="306" y="330"/>
			<point x="328" y="307"/>
			<point x="351" y="231" type="curve" smooth="yes"/>
		</contour>
		<contour>
			<point x="2" y="0" type="line"/>
			<point x="233" y="0" type="line"/>
			<point x="236" y="16" type="line"/>
			<point x="130" y="28" type="line"/>
			<point x="105" y="28" type="line"/>
			<point x="5" y="16" type="line"/>
		</contour>
		<contour>
			<point x="81" y="0" type="line"/>
			<point x="152" y="0" type="line"/>
			<point x="168" y="103"/>
			<point x="185" y="205"/>
			<point x="204" y="308" type="curve" smooth="yes"/>
			<point x="272" y="670" type="line"/>
			<point x="201" y="670" type="line"/>
			<point x="185" y="567"/>
			<point x="168" y="462"/>
			<point x="149" y="359" type="curve" smooth="yes"/>
		</contour>
		<contour>
			<point x="116" y="654" type="line"/>
			<point x="221" y="642" type="line"/>
			<point x="247" y="642" type="line"/>
			<point x="348" y="654" type="line"/>
			<point x="351" y="670" type="line"/>
			<point x="119" y="670" type="line"/>
		</contour>
	</outline>
	<anchor name="aboveUC" x="372" y="690"/>
</glyph>
<glyph name="Ucyr" format="2">
	<unicode hex="0423"/>
	<advance width="596"/>
	<outline>
		<contour>
			<point x="61" y="7" type="curve"/>
			<point x="61" y="-26"/>
			<point x="90" y="-49"/>
			<point x="127" y="-49" type="curve" smooth="yes"/>
			<point x="193" y="-49"/>
			<point x="237" y="15"/>
			<point x="287" y="102" type="curve" smooth="yes"/>
			<point x="611" y="670" type="line"/>
			<point x="582" y="670" type="line"/>
			<point x="310" y="192" type="line"/>
			<point x="267" y="116" type="line"/>
			<point x="232" y="54"/>
			<point x="206" y="10"/>
			<point x="166" y="-8" type="curve"/>
			<point x="140" y="-20" type="line"/>
			<point x="186" y="-2" type="line"/>
			<point x="170" y="33"/>
			<point x="150" y="50"/>
			<point x="122" y="50" type="curve" smooth="yes"/>
			<point x="96" y="50"/>
			<point x="70" y="35"/>
		</contour>
		<contour>
			<point x="92" y="654" type="line"/>
			<point x="174" y="642" type="line"/>
			<point x="204" y="642" type="line"/>
			<point x="314" y="654" type="line"/>
			<point x="317" y="670" type="line"/>
			<point x="95" y="670" type="line"/>
		</contour>
		<contour>
			<point x="482" y="654" type="line"/>
			<point x="575" y="644" type="line"/>
			<point x="590" y="644" type="line"/>
			<point x="667" y="654" type="line"/>
			<point x="670" y="670" type="line"/>
			<point x="485" y="670" type="line"/>
		</contour>
		<contour>
			<point x="270" y="89" type="line"/>
			<point x="316" y="184" type="line"/>
			<point x="222" y="670" type="line"/>
			<point x="152" y="670" type="line"/>
		</contour>
	</outline>
	<anchor name="aboveUC" x="381" y="690"/>
</glyph>
<glyph name="Tse" format="2">
	<unicode hex="0426"/>
	<advance width="664"/>
	<outline>
		<contour>
			<point x="538" y="-172" type="line"/>
			<point x="555" y="-172" type="line"/>
			<point x="603" y="24" type="line"/>
			<point x="105" y="24" type="line"/>
			<point x="101" y="0" type="line"/>
			<point x="585" y="0" type="line"/>
			<point x="548" y="12" type="line"/>
		</contour>
		<contour>
			<point x="81" y="0" type="line"/>
			<point x="152" y="0" type="line"/>
			<point x="168" y="103"/>
			<point x="185" y="205"/>
			<point x="204" y="308" type="curve" smooth="yes"/>
			<point x="272" y="670" type="line"/>
			<point x="201" y="670" type="line"/>
			<point x="185" y="567"/>
			<point x="168" y="462"/>
			<point x="149" y="359" type="curve" smooth="yes"/>
		</contour>
		<contour>
			<point x="116" y="654" type="line"/>
			<point x="221" y="642" type="line"/>
			<point x="247" y="642" type="line"/>
			<point x="348" y="654" type="line"/>
			<point x="351" y="670" type="line"/>
			<point x="119" y="670" type="line"/>
		</contour>
		<contour>
			<point x="436" y="0" type="line"/>
			<point x="507" y="0" type="line"/>
			<point x="523" y="103"/>
			<point x="540" y="205"/>
			<point x="559" y="308" type="curve" smooth="yes"/>
			<point x="627" y="670" type="line"/>
			<point x="556" y="670" type="line"/>
			<point x="540" y="567"/>
			<point x="523" y="462"/>
			<point x="504" y="359" type="curve" smooth="yes"/>
		</contour>
		<contour>
			<point x="471" y="654" type="line"/>
			<point x="576" y="642" type="line"/>
			<point x="602" y="642" type="line"/>
			<point x="703" y="654" type="line"/>
			<point x="706" y="670" type="line"/>
			<point x="474" y="670" type="line"/>
		</contour>
		<contour>
			<point x="2" y="0" type="line"/>
			<point x="128" y="0" type="line"/>
			<point x="130" y="28" type="line"/>
			<point x="105" y="28" type="line"/>
			<point x="5" y="16" type="line"/>
		</contour>
	</outline>
	<anchor name="aboveUC" x="405" y="690"/>
</glyph>
<glyph name="Ya" format="2">
	<unicode hex="042F"/>
	<advance width="597"/>
	<outline>
		<contour>
			<point x="-30" y="0" type="line"/>
			<point x="-13" y="-5"/>
			<point x="7" y="-8"/>
			<point x="31" y="-8" type="curve" smooth="yes"/>
			<point x="94" y="-8"/>
			<point x="113" y="9"/>
			<point x="143" y="57" type="curve" smooth="yes"/>
			<point x="243" y="215" type="line" smooth="yes"/>
			<point x="292" y="292"/>
			<point x="321" y="310"/>
			<point x="395" y="310" type="curve" smooth="yes"/>
			<point x="471" y="310" type="line"/>
			<point x="476" y="334" type="line"/>
			<point x="359" y="334" type="line" smooth="yes"/>
			<point x="272" y="334"/>
			<point x="233" y="389"/>
			<point x="233" y="459" type="curve" smooth="yes"/>
			<point x="233" y="574"/>
			<point x="300" y="646"/>
			<point x="406" y="646" type="curve" smooth="yes"/>
			<point x="533" y="646" type="line"/>
			<point x="537" y="670" type="line"/>
			<point x="404" y="670" type="line" smooth="yes"/>
			<point x="277" y="670"/>
			<point x="165" y="600"/>
			<point x="165" y="464" type="curve" smooth="yes"/>
			<point x="165" y="384"/>
			<point x="225" y="317"/>
			<point x="370" y="317" type="curve"/>
			<point x="372" y="324" type="line"/>
			<point x="273" y="323"/>
			<point x="222" y="293"/>
			<point x="158" y="198" type="curve" smooth="yes"/>
			<point x="37" y="16" type="line"/>
			<point x="77" y="26" type="line"/>
			<point x="-28" y="16" type="line"/>
		</contour>
		<contour>
			<point x="290" y="0" type="line"/>
			<point x="521" y="0" type="line"/>
			<point x="524" y="16" type="line"/>
			<point x="419" y="28" type="line"/>
			<point x="393" y="28" type="line"/>
			<point x="293" y="16" type="line"/>
		</contour>
		<contour>
			<point x="369" y="0" type="line"/>
			<point x="440" y="0" type="line"/>
			<point x="456" y="103"/>
			<point x="472" y="205"/>
			<point x="492" y="308" type="curve" smooth="yes"/>
			<point x="560" y="670" type="line"/>
			<point x="489" y="670" type="line"/>
			<point x="473" y="567"/>
			<point x="456" y="462"/>
			<point x="437" y="359" type="curve" smooth="yes"/>
		</contour>
		<contour>
			<point x="509" y="642" type="line"/>
			<point x="535" y="642" type="line"/>
			<point x="636" y="654" type="line"/>
			<point x="639" y="670" type="line"/>
			<point x="509" y="670" type="line"/>
		</contour>
	</outline>
	<anchor name="aboveUC" x="396" y="690"/>
</glyph>
<glyph name="ve" format="2">
	<unicode hex="0432"/>
	<advance width="422"/>
	<outline>
		<contour>
			<point x="179" y="-12" type="curve" smooth="yes"/>
			<point x="292" y="-12"/>
			<point x="370" y="52"/>
			<point x="370" y="140" type="curve" smooth="yes"/>
			<point x="370" y="188"/>
			<point x="331" y="234"/>
			<point x="248" y="244" type="curve"/>
			<point x="248" y="250" type="line"/>
			<point x="221" y="236" type="line"/>
			<point x="280" y="227"/>
			<point x="306" y="181"/>
			<point x="306" y="128" type="curve" smooth="yes"/>
			<point x="306" y="68"/>
			<point x="258" y="8"/>
			<point x="187" y="8" type="curve" smooth="yes"/>
			<point x="122" y="8"/>
			<point x="95" y="66"/>
			<point x="95" y="140" type="curve" smooth="yes"/>
			<point x="95" y="226"/>
			<point x="130" y="332"/>
			<point x="185" y="395" type="curve" smooth="yes"/>
			<point x="213" y="424"/>
			<point x="247" y="444"/>
			<point x="283" y="444" type="curve" smooth="yes"/>
			<point x="318" y="444"/>
			<point x="344" y="418"/>
			<point x="344" y="373" type="curve" smooth="yes"/>
			<point x="344" y="302"/>
			<point x="281" y="240"/>
			<point x="80" y="232" type="curve"/>
			<point x="80" y="212" type="line"/>
			<point x="295" y="225"/>
			<point x="405" y="295"/>
			<point x="405" y="380" type="curve" smooth="yes"/>
			<point x="405" y="431"/>
			<point x="362" y="464"/>
			<point x="295" y="464" type="curve" smooth="yes"/>
			<point x="242" y="464"/>
			<point x="197" y="447"/>
			<point x="159" y="418" type="curve" smooth="yes"/>
			<point x="75" y="355"/>
			<point x="30" y="240"/>
			<point x="30" y="143" type="curve" smooth="yes"/>
			<point x="30" y="57"/>
			<point x="73" y="-12"/>
		</contour>
	</outline>
</glyph>
<glyph name="de" format="2">
	<unicode hex="0434"/>
	<advance width="442"/>
	<outline>
		<contour>
			<point x="179" y="-12" type="curve" smooth="yes"/>
			<point x="334" y="-12"/>
			<point x="428" y="208"/>
			<point x="428" y="459" type="curve" smooth="yes"/>
			<point x="428" y="663"/>
			<point x="360" y="744"/>
			<point x="256" y="744" type="curve" smooth="yes"/>
			<point x="219" y="744"/>
			<point x="175" y="731"/>
			<point x="147" y="708" type="curve"/>
			<point x="155" y="694" type="line"/>
			<point x="177" y="706"/>
			<point x="212" y="711"/>
			<point x="235" y="711" type="curve" smooth="yes"/>
			<point x="317" y="711"/>
			<point x="365" y="638"/>
			<point x="365" y="455" type="curve" smooth="yes"/>
			<point x="365" y="212"/>
			<point x="289" y="8"/>
			<point x="179" y="8" type="curve" smooth="yes"/>
			<point x="121" y="8"/>
			<point x="95" y="51"/>
			<point x="95" y="154" type="curve" smooth="yes"/>
			<point x="95" y="315"/>
			<point x="172" y="443"/>
			<point x="269" y="443" type="curve" smooth="yes"/>
			<point x="329" y="443"/>
			<point x="375" y="392"/>
			<point x="389" y="334" type="curve"/>
			<point x="389" y="400" type="line"/>
			<point x="376" y="400" type="line"/>
			<point x="352" y="441"/>
			<point x="311" y="463"/>
			<point x="262" y="463" type="curve" smooth="yes"/>
			<point x="127" y="463"/>
			<point x="30" y="320"/>
			<point x="30" y="160" type="curve" smooth="yes"/>
			<point x="30" y="45"/>
			<point x="96" y="-12"/>
		</contour>
	</outline>
</glyph>
<glyph name="ka" format="2">
	<unicode hex="043A"/>
	<advance width="492"/>
	<outline>
		<contour>
			<point x="73" y="-8" type="line"/>
			<point x="133" y="0" type="line"/>
			<point x="142" y="68"/>
			<point x="152" y="134"/>
			<point x="166" y="200" type="curve" smooth="yes"/>
			<point x="195" y="339" type="line"/>
			<point x="220" y="456" type="line"/>
			<point x="211" y="464" type="line"/>
			<point x="63" y="422" type="line"/>
			<point x="61" y="408" type="line"/>
			<point x="161" y="392" type="line"/>
			<point x="147" y="401" type="line"/>
			<point x="64" y="0" type="line"/>
		</contour>
		<contour>
			<point x="386" y="-8" type="curve" smooth="yes"/>
			<point x="406" y="-8"/>
			<point x="425" y="-4"/>
			<point x="451" y="4" type="curve"/>
			<point x="453" y="18" type="line"/>
			<point x="412" y="22" type="line" smooth="yes"/>
			<point x="380" y="25"/>
			<point x="365" y="45"/>
			<point x="345" y="88" type="curve" smooth="yes"/>
			<point x="321" y="140" type="line" smooth="yes"/>
			<point x="299" y="189"/>
			<point x="259" y="212"/>
			<point x="208" y="225" type="curve" smooth="yes"/>
			<point x="175" y="233" type="line"/>
			<point x="166" y="218" type="line"/>
			<point x="417" y="377" type="line" smooth="yes"/>
			<point x="448" y="397"/>
			<point x="463" y="408"/>
			<point x="463" y="431" type="curve" smooth="yes"/>
			<point x="463" y="447"/>
			<point x="452" y="461"/>
			<point x="434" y="464" type="curve"/>
			<point x="167" y="232" type="line"/>
			<point x="163" y="218" type="line"/>
			<point x="186" y="211" type="line" smooth="yes"/>
			<point x="218" y="202"/>
			<point x="239" y="181"/>
			<point x="261" y="129" type="curve" smooth="yes"/>
			<point x="286" y="65" type="line" smooth="yes"/>
			<point x="312" y="0"/>
			<point x="344" y="-8"/>
		</contour>
	</outline>
	<anchor name="aboveLC" x="282" y="472"/>
</glyph>
<glyph name="dje" format="2">
	<unicode hex="0452"/>
	<advance width="478"/>
	<outline>
		<contour>
			<point x="53" y="-8" type="line"/>
			<point x="113" y="0" type="line"/>
			<point x="123" y="68"/>
			<point x="133" y="134"/>
			<point x="147" y="200" type="curve" smooth="yes"/>
			<point x="173" y="325" type="line"/>
			<point x="175" y="336" type="line"/>
			<point x="259" y="736" type="line"/>
			<point x="251" y="744" type="line"/>
			<point x="101" y="702" type="line"/>
			<point x="99" y="688" type="line"/>
			<point x="200" y="671" type="line"/>
			<point x="183" y="694" type="line"/>
			<point x="177" y="641"/>
			<point x="166" y="587"/>
			<point x="155" y="533" type="curve" smooth="yes"/>
			<point x="45" y="0" type="line"/>
		</contour>
		<contour>
			<point x="67" y="563" type="line"/>
			<point x="399" y="563" type="line"/>
			<point x="403" y="585" type="line"/>
			<point x="71" y="585" type="line"/>
		</contour>
		<contour>
			<point x="137" y="-235" type="line"/>
			<point x="180" y="-223"/>
			<point x="219" y="-198"/>
			<point x="252" y="-166" type="curve" smooth="yes"/>
			<point x="378" y="-43"/>
			<point x="431" y="197"/>
			<point x="431" y="333" type="curve" smooth="yes"/>
			<point x="431" y="416"/>
			<point x="401" y="464"/>
			<point x="351" y="464" type="curve" smooth="yes"/>
			<point x="294" y="464"/>
			<point x="207" y="399"/>
			<point x="157" y="307" type="curve"/>
			<point x="149" y="307" type="line"/>
			<point x="157" y="292" type="line"/>
			<point x="225" y="380"/>
			<point x="286" y="411"/>
			<point x="318" y="411" type="curve" smooth="yes"/>
			<point x="348" y="411"/>
			<point x="369" y="386"/>
			<point x="369" y="329" type="curve" smooth="yes"/>
			<point x="369" y="198"/>
			<point x="318" y="-23"/>
			<point x="215" y="-148" type="curve" smooth="yes"/>
			<point x="190" y="-180"/>
			<point x="162" y="-205"/>
			<point x="130" y="-221" type="curve"/>
		</contour>
	</outline>
</glyph>
<glyph name="Izhitsa" format="2">
	<unicode hex="0474"/>
	<advance width="620"/>
	<outline>
		<contour>
			<point x="245" y="-8" type="line"/>
			<point x="265" y="-8" type="line"/>
			<point x="496" y="471" type="line" smooth="yes"/>
			<point x="550" y="583"/>
			<point x="573" y="627"/>
			<point x="606" y="649" type="curve" smooth="yes"/>
			<point x="624" y="661" type="line"/>
			<point x="577" y="637" type="line"/>
			<point x="581" y="631" type="line" smooth="yes"/>
			<point x="600" y="602"/>
			<point x="617" y="589"/>
			<point x="643" y="589" type="curve" smooth="yes"/>
			<point x="669" y="589"/>
			<point x="693" y="604"/>
			<point x="702" y="632" type="curve"/>
			<point x="702" y="665"/>
			<point x="670" y="684"/>
			<point x="637" y="684" type="curve" smooth="yes"/>
			<point x="566" y="684"/>
			<point x="540" y="625"/>
			<point x="470" y="477" type="curve" smooth="yes"/>
			<point x="291" y="97" type="line"/>
			<point x="285" y="85" type="line"/>
			<point x="295" y="85" type="line"/>
			<point x="218" y="670" type="line"/>
			<point x="149" y="670" type="line"/>
		</contour>
		<contour>
			<point x="86" y="654" type="line"/>
			<point x="168" y="642" type="line"/>
			<point x="202" y="642" type="line"/>
			<point x="312" y="654" type="line"/>
			<point x="315" y="670" type="line"/>
			<point x="89" y="670" type="line"/>
		</contour>
	</outline>
	<anchor name="aboveUC" x="417" y="690"/>
</glyph>
<glyph name="Zhedescender" format="2">
	<unicode hex="0496"/>
	<advance width="875"/>
	<outline>
		<contour>
			<point x="750" y="0" type="line"/>
			<point x="815" y="0" type="line"/>
			<point x="778" y="12" type="line"/>
			<point x="789" y="-172" type="line"/>
			<point x="805" y="-172" type="line"/>
			<point x="832" y="16" type="line"/>
			<point x="750" y="24" type="line"/>
		</contour>
		<component base="Zhe"/>
	</outline>
</glyph>
<glyph name="Kadescender" format="2">
	<unicode hex="049A"/>
	<advance width="605"/>
	<outline>
		<contour>
			<point x="459" y="0" type="line"/>
			<point x="539" y="0" type="line"/>
			<point x="501" y="12" type="line"/>
			<point x="492" y="-172" type="line"/>
			<point x="508" y="-172" type="line"/>
			<point x="554" y="16" type="line"/>
			<point x="459" y="27" type="line"/>
		</contour>
		<component base="Ka"/>
	</outline>
</glyph>
<glyph name="Endescender" format="2">
	<unicode hex="04A2"/>
	<advance width="672"/>
	<outline>
		<contour>
			<point x="488" y="0" type="line"/>
			<point x="593" y="0" type="line"/>
			<point x="556" y="12" type="line"/>
			<point x="567" y="-172" type="line"/>
			<point x="583" y="-172" type="line"/>
			<point x="610" y="16" type="line"/>
			<point x="488" y="29" type="line"/>
		</contour>
		<component base="En"/>
	</outline>
</glyph>
<glyph name="b.sups" format="2">
	<unicode hex="1D47"/>
	<advance width="325"/>
	<outline>
		<contour>
			<point x="176" y="419" type="curve" smooth="yes"/>
			<point x="271" y="419"/>
			<point x="369" y="551"/>
			<point x="369" y="646" type="curve" smooth="yes"/>
			<point x="369" y="700"/>
			<point x="337" y="723"/>
			<point x="303" y="723" type="curve" smooth="yes"/>
			<point x="253" y="723"/>
			<point x="206" y="677"/>
			<point x="164" y="617" type="curve"/>
			<point x="162" y="617" type="line"/>
			<point x="167" y="610" type="line"/>
			<point x="214" y="665"/>
			<point x="250" y="686"/>
			<point x="275" y="686" type="curve" smooth="yes"/>
			<point x="301" y="686"/>
			<point x="312" y="666"/>
			<point x="312" y="631" type="curve" smooth="yes"/>
			<point x="312" y="566"/>
			<point x="272" y="450"/>
			<point x="196" y="450" type="curve" smooth="yes"/>
			<point x="167" y="450"/>
			<point x="156" y="470"/>
			<point x="156" y="495" type="curve" smooth="yes"/>
			<point x="156" y="519"/>
			<point x="166" y="553"/>
			<point x="169" y="570" type="curve" smooth="yes"/>
			<point x="182" y="630" type="line"/>
			<point x="184" y="639" type="line"/>
			<point x="235" y="886" type="line"/>
			<point x="228" y="892" type="line"/>
			<point x="117" y="861" type="line"/>
			<point x="116" y="850" type="line"/>
			<point x="180" y="843" type="line"/>
			<point x="174" y="855" type="line"/>
			<point x="113" y="572" type="line" smooth="yes"/>
			<point x="108" y="546"/>
			<point x="101" y="517"/>
			<point x="101" y="492" type="curve" smooth="yes"/>
			<point x="101" y="443"/>
			<point x="133" y="419"/>
		</contour>
	</outline>
</glyph>
<glyph name="o.sups" format="2">
	<unicode hex="1D52"/>
	<advance width="310"/>
	<outline>
		<contour>
			<point x="202" y="418" type="curve" smooth="yes"/>
			<point x="300" y="418"/>
			<point x="364" y="511"/>
			<point x="364" y="611" type="curve" smooth="yes"/>
			<point x="364" y="686"/>
			<point x="312" y="722"/>
			<point x="253" y="722" type="curve" smooth="yes"/>
			<point x="155" y="722"/>
			<point x="92" y="629"/>
			<point x="92" y="529" type="curve" smooth="yes"/>
			<point x="92" y="454"/>
			<point x="144" y="418"/>
		</contour>
		<contour>
			<point x="201" y="432" type="curve" smooth="yes"/>
			<point x="167" y="432"/>
			<point x="149" y="459"/>
			<point x="149" y="514" type="curve" smooth="yes"/>
			<point x="149" y="615"/>
			<point x="196" y="708"/>
			<point x="253" y="708" type="curve" smooth="yes"/>
			<point x="288" y="708"/>
			<point x="306" y="680"/>
			<point x="306" y="625" type="curve" smooth="yes"/>
			<point x="306" y="525"/>
			<point x="259" y="432"/>
		</contour>
	</outline>
</glyph>
<glyph name="p.sups" format="2">
	<unicode hex="1D56"/>
	<advance width="334"/>
	<outline>
		<contour>
			<point x="75" y="265" type="line"/>
			<point x="133" y="265" type="line"/>
			<point x="167" y="438" type="line"/>
			<point x="170" y="449" type="line"/>
			<point x="207" y="631" type="line"/>
			<point x="209" y="637" type="line"/>
			<point x="226" y="716" type="line"/>
			<point x="219" y="722" type="line"/>
			<point x="109" y="693" type="line"/>
			<point x="107" y="683" type="line"/>
			<point x="173" y="672" type="line"/>
			<point x="163" y="678" type="line"/>
		</contour>
		<contour>
			<point x="130" y="456" type="line"/>
			<point x="146" y="432"/>
			<point x="175" y="418"/>
			<point x="202" y="418" type="curve" smooth="yes"/>
			<point x="289" y="418"/>
			<point x="391" y="550"/>
			<point x="391" y="645" type="curve" smooth="yes"/>
			<point x="391" y="699"/>
			<point x="360" y="722"/>
			<point x="325" y="722" type="curve" smooth="yes"/>
			<point x="273" y="722"/>
			<point x="228" y="672"/>
			<point x="190" y="616" type="curve"/>
			<point x="187" y="616" type="line"/>
			<point x="193" y="609" type="line"/>
			<point x="240" y="664"/>
			<point x="273" y="685"/>
			<point x="297" y="685" type="curve" smooth="yes"/>
			<point x="326" y="685"/>
			<point x="333" y="663"/>
			<point x="333" y="630" type="curve" smooth="yes"/>
			<point x="333" y="566"/>
			<point x="294" y="449"/>
			<point x="217" y="449" type="curve" smooth="yes"/>
			<point x="189" y="449"/>
			<point x="171" y="467"/>
			<point x="158" y="481" type="curve"/>
		</contour>
		<contour>
			<point x="20" y="265" type="line"/>
			<point x="194" y="265" type="line"/>
			<point x="196" y="276" type="line"/>
			<point x="129" y="285" type="line"/>
			<point x="90" y="285" type="line"/>
			<point x="23" y="276" type="line"/>
		</contour>
	</outline>
</glyph>
<glyph name="zero.sups" format="2">
	<unicode hex="2070"/>
	<advance width="329"/>
	<outline>
		<contour>
			<point x="201" y="419" type="curve" smooth="yes"/>
			<point x="326" y="419"/>
			<point x="379" y="591"/>
			<point x="379" y="722" type="curve" smooth="yes"/>
			<point x="379" y="807"/>
			<point x="332" y="841"/>
			<point x="274" y="841" type="curve" smooth="yes"/>
			<point x="150" y="841"/>
			<point x="96" y="671"/>
			<point x="96" y="541" type="curve" smooth="yes"/>
			<point x="96" y="455"/>
			<point x="144" y="419"/>
		</contour>
		<contour>
			<point x="201" y="433" type="curve" smooth="yes"/>
			<point x="176" y="433"/>
			<point x="152" y="451"/>
			<point x="152" y="523" type="curve" smooth="yes"/>
			<point x="152" y="634"/>
			<point x="201" y="828"/>
			<point x="274" y="828" type="curve" smooth="yes"/>
			<point x="300" y="828"/>
			<point x="323" y="809"/>
			<point x="323" y="739" type="curve" smooth="yes"/>
			<point x="323" y="627"/>
			<point x="275" y="433"/>
		</contour>
	</outline>
</glyph>
<glyph name="five.sups" format="2">
	<unicode hex="2075"/>
	<advance width="329"/>
	<outline>
		<contour>
			<point x="200" y="418" type="curve" smooth="yes"/>
			<point x="291" y="418"/>
			<point x="366" y="462"/>
			<point x="366" y="559" type="curve" smooth="yes"/>
			<point x="366" y="625"/>
			<point x="319" y="668"/>
			<point x="245" y="668" type="curve" smooth="yes"/>
			<point x="214" y="668"/>
			<point x="185" y="660"/>
			<point x="160" y="647" type="curve"/>
			<point x="168" y="646" type="line"/>
			<point x="205" y="797" type="line"/>
			<point x="193" y="787" type="line"/>
			<point x="397" y="787" type="line"/>
			<point x="405" y="832" type="line"/>
			<point x="197" y="832" type="line"/>
			<point x="151" y="641" type="line"/>
			<point x="159" y="635" type="line"/>
			<point x="176" y="642"/>
			<point x="200" y="648"/>
			<point x="225" y="648" type="curve" smooth="yes"/>
			<point x="276" y="648"/>
			<point x="308" y="608"/>
			<point x="308" y="552" type="curve" smooth="yes"/>
			<point x="308" y="481"/>
			<point x="260" y="432"/>
			<point x="196" y="432" type="curve" smooth="yes"/>
			<point x="176" y="432"/>
			<point x="155" y="435"/>
			<point x="133" y="452" type="curve"/>
			<point x="147" y="434" type="line"/>
			<point x="144" y="499" type="line" smooth="yes"/>
			<point x="143" y="526"/>
			<point x="132" y="535"/>
			<point x="116" y="535" type="curve" smooth="yes"/>
			<point x="104" y="535"/>
			<point x="92" y="529"/>
			<point x="87" y="514" type="curve"/>
			<point x="88" y="447"/>
			<point x="138" y="418"/>
		</contour>
	</outline>
</glyph>
<glyph name="six.sups" format="2">
	<unicode hex="2076"/>
	<advance width="329"/>
	<outline>
		<contour>
			<point x="212" y="419" type="curve" smooth="yes"/>
			<point x="287" y="419"/>
			<point x="363" y="479"/>
			<point x="363" y="569" type="curve" smooth="yes"/>
			<point x="363" y="630"/>
			<point x="323" y="671"/>
			<point x="262" y="671" type="curve" smooth="yes"/>
			<point x="218" y="671"/>
			<point x="180" y="650"/>
			<point x="141" y="607" type="curve"/>
			<point x="134" y="607" type="line"/>
			<point x="144" y="598" type="line"/>
			<point x="172" y="626"/>
			<point x="209" y="643"/>
			<point x="237" y="643" type="curve" smooth="yes"/>
			<point x="278" y="643"/>
			<point x="305" y="618"/>
			<point x="305" y="569" type="curve" smooth="yes"/>
			<point x="305" y="495"/>
			<point x="261" y="433"/>
			<point x="214" y="433" type="curve" smooth="yes"/>
			<point x="169" y="433"/>
			<point x="147" y="466"/>
			<point x="147" y="532" type="curve" smooth="yes"/>
			<point x="147" y="690"/>
			<point x="241" y="813"/>
			<point x="401" y="830" type="curve"/>
			<point x="401" y="841" type="line"/>
			<point x="214" y="832"/>
			<point x="89" y="699"/>
			<point x="89" y="546" type="curve" smooth="yes"/>
			<point x="89" y="466"/>
			<point x="134" y="419"/>
		</contour>
	</outline>
</glyph>
<glyph name="eight.sups" format="2">
	<unicode hex="2078"/>
	<advance width="329"/>
	<outline>
		<contour>
			<point x="212" y="418" type="curve" smooth="yes"/>
			<point x="293" y="418"/>
			<point x="359" y="465"/>
			<point x="359" y="539" type="curve" smooth="yes"/>
			<point x="359" y="587"/>
			<point x="316" y="620"/>
			<point x="277" y="651" type="curve" smooth="yes"/>
			<point x="240" y="679"/>
			<point x="205" y="706"/>
			<point x="205" y="744" type="curve" smooth="yes"/>
			<point x="205" y="802"/>
			<point x="245" y="827"/>
			<point x="282" y="827" type="curve" smooth="yes"/>
			<point x="317" y="827"/>
			<point x="339" y="798"/>
			<point x="339" y="763" type="curve" smooth="yes"/>
			<point x="339" y="718"/>
			<point x="320" y="686"/>
			<point x="255" y="645" type="curve"/>
			<point x="270" y="636" type="line"/>
			<point x="270" y="643" type="line"/>
			<point x="354" y="677"/>
			<point x="390" y="715"/>
			<point x="390" y="760" type="curve" smooth="yes"/>
			<point x="390" y="809"/>
			<point x="345" y="840"/>
			<point x="282" y="840" type="curve" smooth="yes"/>
			<point x="209" y="840"/>
			<point x="152" y="797"/>
			<point x="152" y="729" type="curve" smooth="yes"/>
			<point x="152" y="684"/>
			<point x="187" y="654"/>
			<point x="223" y="625" type="curve" smooth="yes"/>
			<point x="261" y="595"/>
			<point x="301" y="567"/>
			<point x="301" y="525" type="curve" smooth="yes"/>
			<point x="301" y="465"/>
			<point x="258" y="432"/>
			<point x="214" y="432" type="curve" smooth="yes"/>
			<point x="171" y="432"/>
			<point x="147" y="463"/>
			<point x="147" y="504" type="curve" smooth="yes"/>
			<point x="147" y="560"/>
			<point x="185" y="599"/>
			<point x="240" y="629" type="curve"/>
			<point x="221" y="641" type="line"/>
			<point x="221" y="631" type="line"/>
			<point x="143" y="598"/>
			<point x="93" y="559"/>
			<point x="93" y="502" type="curve" smooth="yes"/>
			<point x="93" y="452"/>
			<point x="141" y="418"/>
		</contour>
	</outline>
</glyph>
<glyph name="parenleft.sups" format="2">
	<unicode hex="207D"/>
	<advance width="227"/>
	<outline>
		<contour>
			<point x="215" y="308" type="curve"/>
			<point x="225" y="314" type="line"/>
			<point x="192" y="373"/>
			<point x="173" y="439"/>
			<point x="173" y="522" type="curve" smooth="yes"/>
			<point x="173" y="653"/>
			<point x="232" y="780"/>
			<point x="333" y="887" type="curve"/>
			<point x="324" y="894" type="line"/>
			<point x="198" y="796"/>
			<point x="122" y="667"/>
			<point x="122" y="529" type="curve" smooth="yes"/>
			<point x="122" y="446"/>
			<point x="157" y="371"/>
		</contour>
	</outline>
</glyph>
<glyph name="parenright.sups" format="2">
	<unicode hex="207E"/>
	<advance width="227"/>
	<outline>
		<contour>
			<point x="166" y="893" type="curve"/>
			<point x="156" y="887" type="line"/>
			<point x="189" y="828"/>
			<point x="209" y="762"/>
			<point x="209" y="679" type="curve" smooth="yes"/>
			<point x="209" y="548"/>
			<point x="149" y="421"/>
			<point x="49" y="314" type="curve"/>
			<point x="57" y="307" type="line"/>
			<point x="183" y="406"/>
			<point x="258" y="534"/>
			<point x="258" y="673" type="curve" smooth="yes"/>
			<point x="258" y="755"/>
			<point x="225" y="830"/>
		</contour>
	</outline>
</glyph>
<glyph name="lira" format="2">
	<unicode hex="20A4"/>
	<advance width="470"/>
	<outline>
		<contour>
			<point x="46" y="252" type="line"/>
			<point x="367" y="252" type="line"/>
			<point x="371" y="272" type="line"/>
			<point x="50" y="272" type="line"/>
		</contour>
		<contour>
			<point x="66" y="351" type="line"/>
			<point x="386" y="351" type="line"/>
			<point x="391" y="372" type="line"/>
			<point x="70" y="372" type="line"/>
		</contour>
		<contour>
			<point x="10" y="0" type="line"/>
			<point x="392" y="0" type="line"/>
			<point x="404" y="58" type="line"/>
			<point x="55" y="58" type="line"/>
			<point x="46" y="46" type="line"/>
			<point x="139" y="93"/>
			<point x="207" y="177"/>
			<point x="207" y="310" type="curve" smooth="yes"/>
			<point x="207" y="357"/>
			<point x="191" y="428"/>
			<point x="191" y="463" type="curve" smooth="yes"/>
			<point x="191" y="593"/>
			<point x="265" y="639"/>
			<point x="343" y="639" type="curve" smooth="yes"/>
			<point x="368" y="639"/>
			<point x="404" y="634"/>
			<point x="427" y="614" type="curve"/>
			<point x="409" y="643" type="line"/>
			<point x="413" y="544" type="line" smooth="yes"/>
			<point x="414" y="507"/>
			<point x="427" y="495"/>
			<point x="449" y="495" type="curve" smooth="yes"/>
			<point x="464" y="495"/>
			<point x="478" y="503"/>
			<point x="484" y="523" type="curve"/>
			<point x="484" y="619"/>
			<point x="425" y="659"/>
			<point x="335" y="659" type="curve" smooth="yes"/>
			<point x="217" y="659"/>
			<point x="126" y="586"/>
			<point x="126" y="446" type="curve" smooth="yes"/>
			<point x="126" y="392"/>
			<point x="153" y="314"/>
			<point x="153" y="262" type="curve" smooth="yes"/>
			<point x="153" y="170"/>
			<point x="98" y="85"/>
			<point x="15" y="36" type="curve"/>
		</contour>
	</outline>
</glyph>
<glyph name="hryvnia" format="2">
	<unicode hex="20B4"/>
	<advance width="470"/>
	<outline>
		<contour>
			<point x="201" y="-12" type="curve" smooth="yes"/>
			<point x="316" y="-12"/>
			<point x="384" y="52"/>
			<point x="396" y="145" type="curve"/>
			<point x="390" y="160"/>
			<point x="380" y="168"/>
			<point x="365" y="168" type="curve" smooth="yes"/>
			<point x="340" y="168"/>
			<point x="328" y="153"/>
			<point x="318" y="112" type="curve" smooth="yes"/>
			<point x="293" y="12" type="line"/>
			<point x="320" y="44" type="line"/>
			<point x="286" y="13"/>
			<point x="248" y="8"/>
			<point x="213" y="8" type="curve" smooth="yes"/>
			<point x="153" y="8"/>
			<point x="110" y="46"/>
			<point x="110" y="107" type="curve" smooth="yes"/>
			<point x="110" y="177"/>
			<point x="142" y="214"/>
			<point x="215" y="267" type="curve"/>
			<point x="132" y="268" type="line"/>
			<point x="79" y="228"/>
			<point x="48" y="170"/>
			<point x="48" y="114" type="curve" smooth="yes"/>
			<point x="48" y="47"/>
			<point x="97" y="-12"/>
		</contour>
		<contour>
			<point x="301" y="380" type="curve"/>
			<point x="384" y="379" type="line"/>
			<point x="439" y="421"/>
			<point x="471" y="477"/>
			<point x="471" y="535" type="curve" smooth="yes"/>
			<point x="471" y="601"/>
			<point x="424" y="659"/>
			<point x="320" y="659" type="curve" smooth="yes"/>
			<point x="212" y="659"/>
			<point x="146" y="599"/>
			<point x="134" y="518" type="curve"/>
			<point x="140" y="503"/>
			<point x="150" y="495"/>
			<point x="166" y="495" type="curve" smooth="yes"/>
			<point x="191" y="495"/>
			<point x="200" y="510"/>
			<point x="210" y="551" type="curve" smooth="yes"/>
			<point x="233" y="643" type="line"/>
			<point x="202" y="606" type="line"/>
			<point x="236" y="634"/>
			<point x="268" y="639"/>
			<point x="308" y="639" type="curve" smooth="yes"/>
			<point x="370" y="639"/>
			<point x="409" y="601"/>
			<point x="409" y="542" type="curve" smooth="yes"/>
			<point x="409" y="469"/>
			<point x="375" y="436"/>
		</contour>
		<contour>
			<point x="31" y="264" type="line"/>
			<point x="453" y="264" type="line"/>
			<point x="457" y="284" type="line"/>
			<point x="35" y="284" type="line"/>
		</contour>
		<contour>
			<point x="52" y="363" type="line"/>
			<point x="473" y="363" type="line"/>
			<point x="478" y="384" type="line"/>
			<point x="56" y="384" type="line"/>
		</contour>
		<contour>
			<point x="137" y="276" type="line"/>
			<point x="233" y="275" type="line"/>
			<point x="379" y="372" type="line"/>
			<point x="283" y="372" type="line"/>
		</contour>
	</outline>
</glyph>
<glyph name="cedi" format="2">
	<unicode hex="20B5"/>
	<advance width="470"/>
	<outline>
		<contour>
			<point x="195" y="-116" type="line"/>
			<point x="219" y="-116" type="line"/>
			<point x="395" y="747" type="line"/>
			<point x="371" y="747" type="line"/>
		</contour>
		<contour>
			<point x="245" y="-12" type="curve" smooth="yes"/>
			<point x="348" y="-12"/>
			<point x="416" y="52"/>
			<point x="428" y="145" type="curve"/>
			<point x="422" y="160"/>
			<point x="412" y="168"/>
			<point x="397" y="168" type="curve" smooth="yes"/>
			<point x="371" y="168"/>
			<point x="360" y="153"/>
			<point x="350" y="112" type="curve" smooth="yes"/>
			<point x="325" y="12" type="line"/>
			<point x="352" y="44" type="line"/>
			<point x="318" y="13"/>
			<point x="280" y="8"/>
			<point x="253" y="8" type="curve" smooth="yes"/>
			<point x="160" y="8"/>
			<point x="121" y="75"/>
			<point x="121" y="199" type="curve" smooth="yes"/>
			<point x="121" y="337"/>
			<point x="179" y="639"/>
			<point x="367" y="639" type="curve" smooth="yes"/>
			<point x="392" y="639"/>
			<point x="420" y="634"/>
			<point x="443" y="613" type="curve"/>
			<point x="425" y="643" type="line"/>
			<point x="429" y="544" type="line" smooth="yes"/>
			<point x="430" y="507"/>
			<point x="443" y="495"/>
			<point x="465" y="495" type="curve" smooth="yes"/>
			<point x="480" y="495"/>
			<point x="493" y="503"/>
			<point x="500" y="523" type="curve"/>
			<point x="500" y="619"/>
			<point x="440" y="659"/>
			<point x="359" y="659" type="curve" smooth="yes"/>
			<point x="142" y="659"/>
			<point x="58" y="370"/>
			<point x="58" y="203" type="curve" smooth="yes"/>
			<point x="58" y="68"/>
			<point x="120" y="-12"/>
		</contour>
	</outline>
</glyph>
<glyph name="arrowupleft" format="2">
	<unicode hex="2196"/>
	<advance width="660"/>
	<outline>
		<contour>
			<point x="585" y="92" type="line"/>
			<point x="464" y="214" type="line"/>
			<point x="176" y="483" type="line"/>
			<point x="168" y="460" type="line"/>
			<point x="546" y="482" type="line"/>
			<point x="546" y="499" type="line"/>
			<point x="129" y="514" type="line"/>
			<point x="120" y="505" type="line"/>
			<point x="134" y="88" type="line"/>
			<point x="152" y="88" type="line"/>
			<point x="174" y="466" type="line"/>
			<point x="151" y="458" type="line"/>
			<point x="420" y="170" type="line"/>
			<point x="542" y="49" type="line"/>
		</contour>
	</outline>
</glyph>
<glyph name="triangleblackup" format="2">
	<unicode hex="25B2"/>
	<advance width="581"/>
	<outline>
		<contour>
			<point x="40" y="55" type="line"/>
			<point x="47" y="44" type="line"/>
			<point x="563" y="44" type="line"/>
			<point x="569" y="55" type="line"/>
			<point x="311" y="501" type="line"/>
			<point x="298" y="501" type="line"/>
		</contour>
	</outline>
</glyph>
<glyph name="trianglewhiteup" format="2">
	<unicode hex="25B3"/>
	<advance width="581"/>
	<outline>
		<contour>
			<point x="40" y="55" type="line"/>
			<point x="47" y="44" type="line"/>
			<point x="563" y="44" type="line"/>
			<point x="569" y="55" type="line"/>
			<point x="311" y="501" type="line"/>
			<point x="298" y="501" type="line"/>
		</contour>
		<contour>
			<point x="305" y="448" type="line"/>
			<point x="521" y="75" type="line"/>
			<point x="88" y="75" type="line"/>
		</contour>
	</outline>
</glyph>
<glyph name="trianglewhiteright" format="2">
	<unicode hex="25B7"/>
	<advance width="581"/>
	<outline>
		<contour>
			<point x="107" y="528" type="line"/>
			<point x="96" y="521" type="line"/>
			<point x="96" y="5" type="line"/>
			<point x="107" y="-1" type="line"/>
			<point x="554" y="257" type="line"/>
			<point x="554" y="270" type="line"/>
		</contour>
		<contour>
			<point x="507" y="263" type="line"/>
			<point x="129" y="47" type="line"/>
			<point x="129" y="480" type="line"/>
		</contour>
	</outline>
</glyph>
<glyph name="fisheye" format="2">
	<unicode hex="25C9"/>
	<advance width="446"/>
	<outline>
		<contour>
			<point x="237" y="243" type="curve" smooth="yes"/>
			<point x="285" y="243"/>
			<point x="324" y="282"/>
			<point x="324" y="330" type="curve" smooth="yes"/>
			<point x="324" y="378"/>
			<point x="285" y="416"/>
			<point x="237" y="416" type="curve" smooth="yes"/>
			<point x="189" y="416"/>
			<point x="150" y="378"/>
			<point x="150" y="330" type="curve" smooth="yes"/>
			<point x="150" y="282"/>
			<point x="189" y="243"/>
		</contour>
		<contour>
			<point x="237" y="160" type="curve" smooth="yes"/>
			<point x="142" y="160"/>
			<point x="67" y="235"/>
			<point x="67" y="330" type="curve" smooth="yes"/>
			<point x="67" y="423"/>
			<point x="142" y="499"/>
			<point x="237" y="499" type="curve" smooth="yes"/>
			<point x="330" y="499"/>
			<point x="407" y="423"/>
			<point x="407" y="330" type="curve" smooth="yes"/>
			<point x="407" y="235"/>
			<point x="330" y="160"/>
		</contour>
		<contour>
			<point x="237" y="135" type="curve" smooth="yes"/>
			<point x="347" y="135"/>
			<point x="436" y="222"/>
			<point x="436" y="330" type="curve" smooth="yes"/>
			<point x="436" y="437"/>
			<point x="347" y="525"/>
			<point x="237" y="525" type="curve" smooth="yes"/>
			<point x="127" y="525"/>
			<point x="38" y="437"/>
			<point x="38" y="330" type="curve" smooth="yes"/>
			<point x="38" y="222"/>
			<point x="127" y="135"/>
		</contour>
	</outline>
</glyph>
<glyph name="check" format="2">
	<unicode hex="2713"/>
	<advance width="604"/>
	<outline>
		<contour>
			<point x="81" y="346" type="line"/>
			<point x="145" y="232"/>
			<point x="200" y="112"/>
			<point x="248" y="-4" type="curve"/>
			<point x="284" y="0" type="line"/>
			<point x="371" y="267"/>
			<point x="473" y="530"/>
			<point x="599" y="788" type="curve"/>
			<point x="575" y="801" type="line"/>
			<point x="449" y="561"/>
			<point x="337" y="315"/>
			<point x="259" y="56" type="curve"/>
			<point x="279" y="62" type="line"/>
			<point x="240" y="174"/>
			<point x="193" y="280"/>
			<point x="137" y="381" type="curve"/>
		</contour>
	</outline>
</glyph>
<glyph name="squareshadow" format="2">
	<unicode hex="2752"/>
	<advance width="876"/>
	<outline>
		<contour>
			<point x="102" y="0" type="line"/>
			<point x="102" y="600" type="line"/>
			<point x="712" y="600" type="line"/>
			<point x="712" y="0" type="line"/>
		</contour>
		<contour>
			<point x="70" y="-30" type="line"/>
			<point x="742" y="-30" type="line"/>
			<point x="835" y="118" type="line"/>
			<point x="835" y="714" type="line"/>
			<point x="221" y="714" type="line"/>
			<point x="70" y="619" type="line"/>
		</contour>
	</outline>
</glyph>
<glyph name="acutecmb.cap" format="2">
	<outline>
		<contour>
			<point x="54" y="737" type="curve"/>
			<point x="65" y="722" type="line"/>
			<point x="104" y="741"/>
			<point x="142" y="758"/>
			<point x="181" y="777" type="curve" smooth="yes"/>
			<point x="209" y="791"/>
			<point x="221" y="804"/>
			<point x="221" y="821" type="curve" smooth="yes"/>
			<point x="221" y="835"/>
			<point x="211" y="850"/>
			<point x="192" y="850" type="curve" smooth="yes"/>
			<point x="176" y="850"/>
			<point x="160" y="844"/>
			<point x="136" y="819" type="curve" smooth="yes"/>
			<point x="109" y="792"/>
			<point x="81" y="765"/>
		</contour>
	</outline>
	<anchor name="_aboveUC" x="98" y="690"/>
	<anchor name="aboveUC" x="132" y="850"/>
</glyph>
<glyph name="bracketleft.sups" format="2">
	<advance width="215"/>
	<outline>
		<contour>
			<point x="81" y="325" type="line"/>
			<point x="141" y="325" type="line"/>
			<point x="244" y="879" type="line"/>
			<point x="184" y="879" type="line"/>
		</contour>
		<contour>
			<point x="103" y="325" type="line"/>
			<point x="202" y="325" type="line"/>
			<point x="204" y="336" type="line"/>
			<point x="126" y="345" type="line"/>
			<point x="106" y="345" type="line"/>
		</contour>
		<contour>
			<point x="203" y="858" type="line"/>
			<point x="221" y="858" type="line"/>
			<point x="303" y="867" type="line"/>
			<point x="305" y="879" type="line"/>
			<point x="206" y="879" type="line"/>
		</contour>
	</outline>
</glyph>
<glyph name="breveacute.cap" format="2">
	<outline>
		<contour>
			<point x="168" y="730" type="curve" smooth="yes"/>
			<point x="252" y="730"/>
			<point x="296" y="790"/>
			<point x="317" y="846" type="curve"/>
			<point x="300" y="853" type="line"/>
			<point x="272" y="808"/>
			<point x="230" y="778"/>
			<point x="169" y="778" type="curve" smooth="yes"/>
			<point x="108" y="778"/>
			<point x="76" y="808"/>
			<point x="65" y="853" type="curve"/>
			<point x="44" y="846" type="line"/>
			<point x="45" y="790"/>
			<point x="83" y="730"/>
		</contour>
		<contour>
			<point x="175" y="817" type="line"/>
			<point x="260" y="891" type="line" smooth="yes"/>
			<point x="286" y="914"/>
			<point x="294" y="926"/>
			<point x="294" y="942" type="curve" smooth="yes"/>
			<point x="294" y="955"/>
			<point x="281" y="964"/>
			<point x="268" y="964" type="curve" smooth="yes"/>
			<point x="252" y="964"/>
			<point x="238" y="952"/>
			<point x="220" y="924" type="curve" smooth="yes"/>
			<point x="161" y="827" type="line"/>
		</contour>
	</outline>
	<anchor name="_aboveUC" x="147" y="690"/>
</glyph>
<glyph name="brevecmb.cyr" format="2">
	<outline>
		<contour>
			<point x="115" y="540" type="curve" smooth="yes"/>
			<point x="192" y="540"/>
			<point x="252" y="582"/>
			<point x="280" y="666" type="curve"/>
			<point x="263" y="671" type="line"/>
			<point x="230" y="607"/>
			<point x="185" y="570"/>
			<point x="115" y="570" type="curve" smooth="yes"/>
			<point x="81" y="570"/>
			<point x="56" y="577"/>
			<point x="35" y="610" type="curve"/>
			<point x="37" y="587" type="line"/>
			<point x="61" y="597"/>
			<point x="80" y="618"/>
			<point x="80" y="644" type="curve" smooth="yes"/>
			<point x="80" y="668"/>
			<point x="63" y="682"/>
			<point x="42" y="682" type="curve" smooth="yes"/>
			<point x="16" y="682"/>
			<point x="1" y="664"/>
			<point x="-7" y="638" type="curve"/>
			<point x="-7" y="578"/>
			<point x="47" y="540"/>
		</contour>
	</outline>
	<anchor name="_aboveLC" x="100" y="472"/>
	<anchor name="aboveLC" x="151" y="682"/>
</glyph>
<glyph name="brevecmb.cyrcap" format="2">
	<outline>
		<contour>
			<point x="155" y="729" type="curve" smooth="yes"/>
			<point x="231" y="729"/>
			<point x="292" y="771"/>
			<point x="320" y="855" type="curve"/>
			<point x="303" y="860" type="line"/>
			<point x="270" y="796"/>
			<point x="225" y="759"/>
			<point x="155" y="759" type="curve" smooth="yes"/>
			<point x="121" y="759"/>
			<point x="96" y="767"/>
			<point x="74" y="799" type="curve"/>
			<point x="77" y="776" type="line"/>
			<point x="101" y="786"/>
			<point x="120" y="807"/>
			<point x="120" y="833" type="curve" smooth="yes"/>
			<point x="120" y="857"/>
			<point x="103" y="871"/>
			<point x="82" y="871" type="curve" smooth="yes"/>
			<point x="55" y="871"/>
			<point x="41" y="853"/>
			<point x="33" y="828" type="curve"/>
			<point x="33" y="767"/>
			<point x="86" y="729"/>
		</contour>
	</outline>
	<anchor name="_aboveUC" x="147" y="689"/>
	<anchor name="aboveUC" x="189" y="871"/>
</glyph>
<glyph name="brevehoi.cap" format="2">
	<outline>
		<contour>
			<point x="172" y="730" type="curve" smooth="yes"/>
			<point x="254" y="730"/>
			<point x="300" y="790"/>
			<point x="321" y="846" type="curve"/>
			<point x="304" y="854" type="line"/>
			<point x="279" y="810"/>
			<point x="233" y="779"/>
			<point x="173" y="779" type="curve" smooth="yes"/>
			<point x="113" y="779"/>
			<point x="79" y="810"/>
			<point x="69" y="854" type="curve"/>
			<point x="48" y="846" type="line"/>
			<point x="49" y="790"/>
			<point x="89" y="730"/>
		</contour>
		<contour>
			<point x="170" y="830" type="line"/>
			<point x="229" y="839"/>
			<point x="265" y="866"/>
			<point x="265" y="908" type="curve" smooth="yes"/>
			<point x="265" y="946"/>
			<point x="232" y="972"/>
			<point x="169" y="979" type="curve"/>
			<point x="151" y="926" type="line"/>
			<point x="201" y="921"/>
			<point x="226" y="910"/>
			<point x="226" y="890" type="curve" smooth="yes"/>
			<point x="226" y="871"/>
			<point x="204" y="856"/>
			<point x="167" y="848" type="curve"/>
		</contour>
	</outline>
	<anchor name="_aboveUC" x="147" y="690"/>
</glyph>
<glyph name="brevetilde.cap" format="2">
	<outline>
		<contour>
			<point x="164" y="730" type="curve" smooth="yes"/>
			<point x="246" y="730"/>
			<point x="285" y="780"/>
			<point x="311" y="828" type="curve"/>
			<point x="295" y="835" type="line"/>
			<point x="266" y="801"/>
			<point x="228" y="778"/>
			<point x="169" y="778" type="curve" smooth="yes"/>
			<point x="109" y="778"/>
			<point x="82" y="800"/>
			<point x="64" y="836" type="curve"/>
			<point x="45" y="828" type="line"/>
			<point x="52" y="780"/>
			<point x="81" y="730"/>
		</contour>
		<contour>
			<point x="50" y="850" type="line"/>
			<point x="67" y="878"/>
			<point x="93" y="895"/>
			<point x="122" y="895" type="curve" smooth="yes"/>
			<point x="142" y="895"/>
			<point x="158" y="886"/>
			<point x="176" y="877" type="curve" smooth="yes"/>
			<point x="196" y="867"/>
			<point x="217" y="856"/>
			<point x="241" y="856" type="curve" smooth="yes"/>
			<point x="291" y="856"/>
			<point x="325" y="887"/>
			<point x="343" y="935" type="curve"/>
			<point x="328" y="943" type="line"/>
			<point x="309" y="915"/>
			<point x="284" y="898"/>
			<point x="254" y="898" type="curve" smooth="yes"/>
			<point x="235" y="898"/>
			<point x="218" y="907"/>
			<point x="200" y="916" type="curve" smooth="yes"/>
			<point x="180" y="926"/>
			<point x="159" y="937"/>
			<point x="135" y="937" type="curve" smooth="yes"/>
			<point x="85" y="937"/>
			<point x="53" y="906"/>
			<point x="34" y="858" type="curve"/>
		</contour>
	</outline>
	<anchor name="_aboveUC" x="147" y="690"/>
</glyph>
<glyph name="brevetilde" format="2">
	<outline>
		<contour>
			<point x="70" y="540" type="curve" smooth="yes"/>
			<point x="154" y="540"/>
			<point x="202" y="600"/>
			<point x="225" y="656" type="curve"/>
			<point x="206" y="663" type="line"/>
			<point x="179" y="618"/>
			<point x="136" y="588"/>
			<point x="75" y="588" type="curve" smooth="yes"/>
			<point x="14" y="588"/>
			<point x="-17" y="618"/>
			<point x="-28" y="663" type="curve"/>
			<point x="-48" y="656" type="line"/>
			<point x="-48" y="600"/>
			<point x="-14" y="540"/>
		</contour>
		<contour>
			<point x="-37" y="681" type="line"/>
			<point x="-20" y="709"/>
			<point x="2" y="730"/>
			<point x="32" y="730" type="curve" smooth="yes"/>
			<point x="52" y="730"/>
			<point x="71" y="719"/>
			<point x="90" y="708" type="curve" smooth="yes"/>
			<point x="111" y="696"/>
			<point x="133" y="684"/>
			<point x="158" y="684" type="curve" smooth="yes"/>
			<point x="208" y="684"/>
			<point x="238" y="718"/>
			<point x="256" y="766" type="curve"/>
			<point x="242" y="774" type="line"/>
			<point x="222" y="746"/>
			<point x="201" y="726"/>
			<point x="171" y="726" type="curve" smooth="yes"/>
			<point x="151" y="726"/>
			<point x="133" y="736"/>
			<point x="114" y="746" type="curve" smooth="yes"/>
			<point x="93" y="758"/>
			<point x="70" y="772"/>
			<point x="44" y="772" type="curve" smooth="yes"/>
			<point x="-6" y="772"/>
			<point x="-34" y="737"/>
			<point x="-53" y="689" type="curve"/>
		</contour>
	</outline>
	<anchor name="_aboveLC" x="51" y="472"/>
</glyph>
<glyph name="circumflexgrave.cap" format="2">
	<outline>
		<contour>
			<point x="-18" y="720" type="line"/>
			<point x="146" y="803" type="line"/>
			<point x="108" y="803" type="line"/>
			<point x="233" y="720" type="line"/>
			<point x="246" y="733" type="line"/>
			<point x="144" y="845" type="line"/>
			<point x="116" y="845" type="line"/>
			<point x="-27" y="735" type="line"/>
		</contour>
		<contour>
			<point x="16" y="803" type="line"/>
			<point x="26" y="812" type="line"/>
			<point x="-37" y="880" type="line" smooth="yes"/>
			<point x="-55" y="899"/>
			<point x="-64" y="909"/>
			<point x="-80" y="909" type="curve" smooth="yes"/>
			<point x="-94" y="909"/>
			<point x="-106" y="897"/>
			<point x="-106" y="884" type="curve" smooth="yes"/>
			<point x="-106" y="860"/>
			<point x="-83" y="850"/>
			<point x="-65" y="841" type="curve" smooth="yes"/>
		</contour>
	</outline>
	<anchor name="_aboveUC" x="98" y="690"/>
</glyph>
<glyph name="circumflexhoi" format="2">
	<outline>
		<contour>
			<point x="-63" y="528" type="line"/>
			<point x="101" y="611" type="line"/>
			<point x="63" y="611" type="line"/>
			<point x="187" y="528" type="line"/>
			<point x="200" y="541" type="line"/>
			<point x="99" y="653" type="line"/>
			<point x="71" y="653" type="line"/>
			<point x="-72" y="543" type="line"/>
		</contour>
		<contour>
			<point x="194" y="608" type="line"/>
			<point x="254" y="621"/>
			<point x="293" y="645"/>
			<point x="293" y="699" type="curve" smooth="yes"/>
			<point x="293" y="742"/>
			<point x="260" y="779"/>
			<point x="198" y="787" type="curve"/>
			<point x="180" y="733" type="line"/>
			<point x="232" y="723"/>
			<point x="253" y="709"/>
			<point x="253" y="681" type="curve" smooth="yes"/>
			<point x="253" y="656"/>
			<point x="232" y="637"/>
			<point x="191" y="626" type="curve"/>
		</contour>
	</outline>
	<anchor name="_aboveLC" x="51" y="472"/>
</glyph>
<glyph name="circumflextilde.cap" format="2">
	<outline>
		<contour>
			<point x="27" y="720" type="line"/>
			<point x="185" y="784" type="line"/>
			<point x="157" y="784" type="line"/>
			<point x="285" y="720" type="line"/>
			<point x="295" y="733" type="line"/>
			<point x="190" y="829" type="line"/>
			<point x="162" y="829" type="line"/>
			<point x="19" y="735" type="line"/>
		</contour>
		<contour>
			<point x="48" y="844" type="line"/>
			<point x="65" y="872"/>
			<point x="90" y="889"/>
			<point x="120" y="889" type="curve" smooth="yes"/>
			<point x="140" y="889"/>
			<point x="156" y="880"/>
			<point x="174" y="871" type="curve" smooth="yes"/>
			<point x="194" y="861"/>
			<point x="215" y="850"/>
			<point x="240" y="850" type="curve" smooth="yes"/>
			<point x="289" y="850"/>
			<point x="323" y="881"/>
			<point x="341" y="929" type="curve"/>
			<point x="327" y="937" type="line"/>
			<point x="308" y="910"/>
			<point x="282" y="893"/>
			<point x="252" y="893" type="curve" smooth="yes"/>
			<point x="233" y="893"/>
			<point x="216" y="902"/>
			<point x="198" y="910" type="curve" smooth="yes"/>
			<point x="178" y="920"/>
			<point x="157" y="931"/>
			<point x="133" y="931" type="curve" smooth="yes"/>
			<point x="83" y="931"/>
			<point x="51" y="900"/>
			<point x="32" y="853" type="curve"/>
		</contour>
	</outline>
	<anchor name="_aboveUC" x="147" y="690"/>
</glyph>
<glyph name="colon.sups" format="2">
	<advance width="178"/>
	<outline>
		<contour>
			<point x="134" y="420" type="curve" smooth="yes"/>
			<point x="159" y="420"/>
			<point x="180" y="439"/>
			<point x="180" y="464" type="curve" smooth="yes"/>
			<point x="180" y="483"/>
			<point x="163" y="499"/>
			<point x="141" y="499" type="curve" smooth="yes"/>
			<point x="115" y="499"/>
			<point x="93" y="481"/>
			<point x="93" y="457" type="curve" smooth="yes"/>
			<point x="93" y="437"/>
			<point x="109" y="420"/>
		</contour>
		<contour>
			<point x="181" y="645" type="curve" smooth="yes"/>
			<point x="207" y="645"/>
			<point x="227" y="663"/>
			<point x="227" y="687" type="curve" smooth="yes"/>
			<point x="227" y="707"/>
			<point x="211" y="724"/>
			<point x="188" y="724" type="curve" smooth="yes"/>
			<point x="162" y="724"/>
			<point x="140" y="705"/>
			<point x="140" y="680" type="curve" smooth="yes"/>
			<point x="140" y="661"/>
			<point x="157" y="645"/>
		</contour>
	</outline>
</glyph>
<glyph name="comma.sups" format="2">
	<advance width="178"/>
	<outline>
		<contour>
			<point x="177" y="463" type="curve" smooth="yes"/>
			<point x="177" y="476"/>
			<point x="174" y="484"/>
			<point x="170" y="491" type="curve"/>
			<point x="159" y="496"/>
			<point x="151" y="499"/>
			<point x="140" y="499" type="curve" smooth="yes"/>
			<point x="108" y="499"/>
			<point x="96" y="478"/>
			<point x="96" y="457" type="curve" smooth="yes"/>
			<point x="96" y="446"/>
			<point x="102" y="429"/>
			<point x="140" y="400" type="curve"/>
			<point x="141" y="408" type="line"/>
			<point x="125" y="373"/>
			<point x="100" y="353"/>
			<point x="59" y="335" type="curve"/>
			<point x="64" y="322" type="line"/>
			<point x="133" y="340"/>
			<point x="177" y="399"/>
		</contour>
	</outline>
</glyph>
<glyph name="dieresisgrave" format="2">
	<outline>
		<contour>
			<point x="30" y="548" type="curve" smooth="yes"/>
			<point x="59" y="548"/>
			<point x="82" y="570"/>
			<point x="82" y="601" type="curve" smooth="yes"/>
			<point x="82" y="625"/>
			<point x="65" y="643"/>
			<point x="41" y="643" type="curve" smooth="yes"/>
			<point x="14" y="643"/>
			<point x="-11" y="622"/>
			<point x="-11" y="589" type="curve" smooth="yes"/>
			<point x="-11" y="564"/>
			<point x="8" y="548"/>
		</contour>
		<contour>
			<point x="137" y="647" type="line"/>
			<point x="150" y="658" type="line"/>
			<point x="89" y="751" type="line" smooth="yes"/>
			<point x="67" y="785"/>
			<point x="55" y="794"/>
			<point x="38" y="794" type="curve" smooth="yes"/>
			<point x="23" y="794"/>
			<point x="9" y="783"/>
			<point x="9" y="766" type="curve" smooth="yes"/>
			<point x="9" y="745"/>
			<point x="23" y="732"/>
			<point x="45" y="716" type="curve" smooth="yes"/>
		</contour>
		<contour>
			<point x="208" y="548" type="curve" smooth="yes"/>
			<point x="237" y="548"/>
			<point x="260" y="570"/>
			<point x="260" y="601" type="curve" smooth="yes"/>
			<point x="260" y="625"/>
			<point x="243" y="643"/>
			<point x="219" y="643" type="curve" smooth="yes"/>
			<point x="193" y="643"/>
			<point x="168" y="622"/>
			<point x="168" y="589" type="curve" smooth="yes"/>
			<point x="168" y="564"/>
			<point x="187" y="548"/>
		</contour>
	</outline>
	<anchor name="_aboveLC" x="100" y="472"/>
</glyph>
<glyph name="dieresismacron" format="2">
	<outline>
		<contour>
			<point x="-10" y="549" type="curve" smooth="yes"/>
			<point x="19" y="549"/>
			<point x="42" y="571"/>
			<point x="42" y="603" type="curve" smooth="yes"/>
			<point x="42" y="626"/>
			<point x="25" y="644"/>
			<point x="0" y="644" type="curve" smooth="yes"/>
			<point x="-26" y="644"/>
			<point x="-51" y="623"/>
			<point x="-51" y="590" type="curve" smooth="yes"/>
			<point x="-51" y="565"/>
			<point x="-32" y="549"/>
		</contour>
		<contour>
			<point x="160" y="549" type="curve" smooth="yes"/>
			<point x="189" y="549"/>
			<point x="212" y="571"/>
			<point x="212" y="603" type="curve" smooth="yes"/>
			<point x="212" y="626"/>
			<point x="195" y="644"/>
			<point x="171" y="644" type="curve" smooth="yes"/>
			<point x="145" y="644"/>
			<point x="120" y="623"/>
			<point x="120" y="590" type="curve" smooth="yes"/>
			<point x="120" y="565"/>
			<point x="139" y="549"/>
		</contour>
		<component base="macroncmb" xOffset="22" yOffset="112"/>
	</outline>
	<anchor name="_aboveLC" x="51" y="472"/>
</glyph>
<glyph name="dotaccentcmb.cap" format="2">
	<outline>
		<contour>
			<point x="163" y="742" type="curve" smooth="yes"/>
			<point x="192" y="742"/>
			<point x="221" y="768"/>
			<point x="221" y="804" type="curve" smooth="yes"/>
			<point x="221" y="830"/>
			<point x="203" y="847"/>
			<point x="178" y="847" type="curve" smooth="yes"/>
			<point x="147" y="847"/>
			<point x="121" y="820"/>
			<point x="121" y="784" type="curve" smooth="yes"/>
			<point x="121" y="759"/>
			<point x="138" y="742"/>
		</contour>
	</outline>
	<anchor name="_aboveUC" x="147" y="690"/>
	<anchor name="aboveUC" x="182" y="847"/>
</glyph>
<glyph name="egrave.sups" format="2">
	<advance width="266"/>
	<outline>
		<contour>
			<point x="284" y="769" type="line"/>
			<point x="243" y="854" type="line" smooth="yes"/>
			<point x="232" y="877"/>
			<point x="221" y="887"/>
			<point x="205" y="887" type="curve" smooth="yes"/>
			<point x="192" y="887"/>
			<point x="182" y="879"/>
			<point x="182" y="863" type="curve" smooth="yes"/>
			<point x="182" y="854"/>
			<point x="188" y="843"/>
			<point x="205" y="829" type="curve" smooth="yes"/>
			<point x="274" y="763" type="line"/>
		</contour>
		<component base="e.sups"/>
	</outline>
</glyph>
<glyph name="endash.sups" format="2">
	<advance width="332"/>
	<outline>
		<contour>
			<point x="118" y="599" type="line"/>
			<point x="400" y="599" type="line"/>
			<point x="400" y="623" type="line"/>
			<point x="118" y="623" type="line"/>
		</contour>
	</outline>
</glyph>
<glyph name="f_j" format="2">
	<advance width="467"/>
	<outline>
		<contour>
			<point x="-93" y="-259" type="curve" smooth="yes"/>
			<point x="-44" y="-259"/>
			<point x="-3" y="-234"/>
			<point x="29" y="-195" type="curve" smooth="yes"/>
			<point x="78" y="-138"/>
			<point x="109" y="-52"/>
			<point x="121" y="25" type="curve" smooth="yes"/>
			<point x="145" y="178"/>
			<point x="169" y="332"/>
			<point x="193" y="485" type="curve" smooth="yes"/>
			<point x="220" y="664"/>
			<point x="296" y="733"/>
			<point x="363" y="744" type="curve" smooth="yes"/>
			<point x="353" y="750" type="line"/>
			<point x="336" y="742" type="line"/>
			<point x="384" y="692" type="line" smooth="yes"/>
			<point x="405" y="669"/>
			<point x="426" y="656"/>
			<point x="444" y="656" type="curve" smooth="yes"/>
			<point x="463" y="656"/>
			<point x="477" y="667"/>
			<point x="481" y="689" type="curve"/>
			<point x="476" y="727"/>
			<point x="415" y="754"/>
			<point x="364" y="754" type="curve" smooth="yes"/>
			<point x="301" y="754"/>
			<point x="165" y="699"/>
			<point x="131" y="483" type="curve" smooth="yes"/>
			<point x="108" y="330"/>
			<point x="84" y="177"/>
			<point x="60" y="25" type="curve" smooth="yes"/>
			<point x="51" y="-30"/>
			<point x="36" y="-114"/>
			<point x="3" y="-174" type="curve" smooth="yes"/>
			<point x="-13" y="-202"/>
			<point x="-33" y="-226"/>
			<point x="-59" y="-238" type="curve"/>
			<point x="-65" y="-239" type="line"/>
			<point x="-36" y="-239" type="line"/>
			<point x="-61" y="-215" type="line" smooth="yes"/>
			<point x="-83" y="-192"/>
			<point x="-100" y="-178"/>
			<point x="-130" y="-178" type="curve" smooth="yes"/>
			<point x="-152" y="-178"/>
			<point x="-174" y="-190"/>
			<point x="-178" y="-211" type="curve"/>
			<point x="-169" y="-245"/>
			<point x="-134" y="-259"/>
		</contour>
		<contour>
			<point x="135" y="-263" type="line"/>
			<point x="175" y="-255"/>
			<point x="207" y="-238"/>
			<point x="235" y="-215" type="curve" smooth="yes"/>
			<point x="295" y="-164"/>
			<point x="329" y="-84"/>
			<point x="346" y="-6" type="curve" smooth="yes"/>
			<point x="441" y="456" type="line"/>
			<point x="433" y="464" type="line"/>
			<point x="390" y="452" type="line"/>
			<point x="150" y="452" type="line"/>
			<point x="150" y="458" type="line"/>
			<point x="34" y="444" type="line"/>
			<point x="34" y="428" type="line"/>
			<point x="151" y="428" type="line"/>
			<point x="373" y="428" type="line"/>
			<point x="287" y="16" type="line" smooth="yes"/>
			<point x="270" y="-63"/>
			<point x="253" y="-142"/>
			<point x="207" y="-194" type="curve" smooth="yes"/>
			<point x="187" y="-216"/>
			<point x="163" y="-234"/>
			<point x="130" y="-247" type="curve"/>
		</contour>
	</outline>
</glyph>
<glyph name="hoicmb.cap" format="2">
	<outline>
		<contour>
			<point x="138" y="721" type="line"/>
			<point x="197" y="731"/>
			<point x="233" y="758"/>
			<point x="233" y="800" type="curve" smooth="yes"/>
			<point x="233" y="838"/>
			<point x="200" y="864"/>
			<point x="138" y="871" type="curve"/>
			<point x="119" y="818" type="line"/>
			<point x="170" y="813"/>
			<point x="194" y="802"/>
			<point x="194" y="782" type="curve" smooth="yes"/>
			<point x="194" y="763"/>
			<point x="172" y="748"/>
			<point x="135" y="740" type="curve"/>
		</contour>
	</outline>
	<anchor name="_aboveUC" x="147" y="690"/>
	<anchor name="aboveUC" x="177" y="871"/>
</glyph>
<glyph name="idieresis.narrow" format="2">
	<advance width="284"/>
	<outline>
		<contour>
			<point x="152" y="580" type="curve" smooth="yes"/>
			<point x="180" y="580"/>
			<point x="203" y="602"/>
			<point x="203" y="634" type="curve" smooth="yes"/>
			<point x="203" y="657"/>
			<point x="186" y="675"/>
			<point x="162" y="675" type="curve" smooth="yes"/>
			<point x="135" y="675"/>
			<point x="110" y="654"/>
			<point x="110" y="622" type="curve" smooth="yes"/>
			<point x="110" y="596"/>
			<point x="129" y="580"/>
		</contour>
		<contour>
			<point x="292" y="580" type="curve" smooth="yes"/>
			<point x="321" y="580"/>
			<point x="344" y="602"/>
			<point x="344" y="634" type="curve" smooth="yes"/>
			<point x="344" y="657"/>
			<point x="327" y="675"/>
			<point x="302" y="675" type="curve" smooth="yes"/>
			<point x="277" y="675"/>
			<point x="252" y="654"/>
			<point x="252" y="622" type="curve" smooth="yes"/>
			<point x="252" y="596"/>
			<point x="271" y="580"/>
		</contour>
		<component base="dotlessi"/>
	</outline>
</glyph>
<glyph name="macroncmb.cap" format="2">
	<outline>
		<contour>
			<point x="19" y="750" type="line"/>
			<point x="306" y="750" type="line"/>
			<point x="317" y="798" type="line"/>
			<point x="29" y="798" type="line"/>
		</contour>
	</outline>
	<anchor name="_aboveUC" x="147" y="690"/>
	<anchor name="aboveUC" x="183" y="798"/>
</glyph>
<glyph name="period.sups" format="2">
	<advance width="178"/>
	<outline>
		<contour>
			<point x="122" y="421" type="curve" smooth="yes"/>
			<point x="147" y="421"/>
			<point x="168" y="440"/>
			<point x="168" y="465" type="curve" smooth="yes"/>
			<point x="168" y="484"/>
			<point x="151" y="500"/>
			<point x="129" y="500" type="curve" smooth="yes"/>
			<point x="103" y="500"/>
			<point x="81" y="482"/>
			<point x="81" y="458" type="curve" smooth="yes"/>
			<point x="81" y="438"/>
			<point x="97" y="421"/>
		</contour>
	</outline>
</glyph>
<glyph name="seven.cap" format="2">
	<advance width="449"/>
	<outline>
		<contour>
			<point x="77" y="0" type="line"/>
			<point x="148" y="0" type="line"/>
			<point x="495" y="637" type="line"/>
			<point x="499" y="670" type="line"/>
			<point x="126" y="670" type="line"/>
			<point x="114" y="612" type="line"/>
			<point x="467" y="612" type="line"/>
			<point x="474" y="636" type="line"/>
			<point x="73" y="12" type="line"/>
		</contour>
	</outline>
</glyph>
<glyph name="tildecmb.cap" format="2">
	<outline>
		<contour>
			<point x="-44" y="732" type="curve"/>
			<point x="-29" y="728" type="line"/>
			<point x="-6" y="777"/>
			<point x="22" y="807"/>
			<point x="53" y="807" type="curve" smooth="yes"/>
			<point x="73" y="807"/>
			<point x="88" y="787"/>
			<point x="106" y="764" type="curve" smooth="yes"/>
			<point x="122" y="744"/>
			<point x="136" y="724"/>
			<point x="170" y="724" type="curve" smooth="yes"/>
			<point x="218" y="724"/>
			<point x="256" y="768"/>
			<point x="280" y="841" type="curve"/>
			<point x="265" y="845" type="line"/>
			<point x="242" y="796"/>
			<point x="214" y="766"/>
			<point x="183" y="766" type="curve" smooth="yes"/>
			<point x="163" y="766"/>
			<point x="148" y="787"/>
			<point x="130" y="810" type="curve" smooth="yes"/>
			<point x="114" y="830"/>
			<point x="100" y="849"/>
			<point x="66" y="849" type="curve" smooth="yes"/>
			<point x="18" y="849"/>
			<point x="-20" y="805"/>
		</contour>
	</outline>
	<anchor name="_aboveUC" x="98" y="690"/>
	<anchor name="aboveUC" x="131" y="849"/>
</glyph>
<glyph name="tonoscmb" format="2">
	<outline>
		<contour>
			<point x="105" y="540" type="curve"/>
			<point x="120" y="535" type="line"/>
			<point x="152" y="580"/>
			<point x="186" y="625"/>
			<point x="219" y="670" type="curve" smooth="yes"/>
			<point x="233" y="687"/>
			<point x="245" y="706"/>
			<point x="245" y="719" type="curve" smooth="yes"/>
			<point x="245" y="736"/>
			<point x="233" y="746"/>
			<point x="213" y="746" type="curve" smooth="yes"/>
			<point x="192" y="746"/>
			<point x="182" y="724"/>
			<point x="172" y="701" type="curve" smooth="yes"/>
			<point x="150" y="647"/>
			<point x="128" y="594"/>
		</contour>
	</outline>
	<anchor name="_aboveLC" x="100" y="472"/>
</glyph>
<glyph name="two.cap" format="2">
	<advance width="467"/>
	<outline>
		<contour>
			<point x="10" y="0" type="line"/>
			<point x="368" y="0" type="line"/>
			<point x="379" y="58" type="line"/>
			<point x="48" y="58" type="line"/>
			<point x="48" y="68" type="line"/>
			<point x="37" y="42" type="line"/>
			<point x="195" y="190" type="line" smooth="yes"/>
			<point x="350" y="334"/>
			<point x="451" y="423"/>
			<point x="451" y="534" type="curve" smooth="yes"/>
			<point x="451" y="621"/>
			<point x="394" y="683"/>
			<point x="282" y="683" type="curve" smooth="yes"/>
			<point x="193" y="683"/>
			<point x="117" y="614"/>
			<point x="105" y="533" type="curve"/>
			<point x="112" y="518"/>
			<point x="122" y="510"/>
			<point x="137" y="510" type="curve" smooth="yes"/>
			<point x="163" y="510"/>
			<point x="171" y="529"/>
			<point x="181" y="567" type="curve" smooth="yes"/>
			<point x="205" y="659" type="line"/>
			<point x="174" y="626" type="line"/>
			<point x="208" y="650"/>
			<point x="236" y="662"/>
			<point x="274" y="662" type="curve" smooth="yes"/>
			<point x="339" y="662"/>
			<point x="390" y="628"/>
			<point x="390" y="535" type="curve" smooth="yes"/>
			<point x="390" y="438"/>
			<point x="332" y="382"/>
			<point x="172" y="211" type="curve" smooth="yes"/>
			<point x="18" y="45" type="line"/>
		</contour>
	</outline>
</glyph>
<glyph name="zero.cap" format="2">
	<advance width="478"/>
	<outline>
		<contour>
			<point x="200" y="-12" type="curve" smooth="yes"/>
			<point x="374" y="-12"/>
			<point x="462" y="273"/>
			<point x="462" y="499" type="curve" smooth="yes"/>
			<point x="462" y="630"/>
			<point x="400" y="683"/>
			<point x="322" y="683" type="curve" smooth="yes"/>
			<point x="148" y="683"/>
			<point x="59" y="402"/>
			<point x="59" y="177" type="curve" smooth="yes"/>
			<point x="59" y="45"/>
			<point x="122" y="-12"/>
		</contour>
		<contour>
			<point x="200" y="8" type="curve" smooth="yes"/>
			<point x="159" y="8"/>
			<point x="122" y="41"/>
			<point x="122" y="167" type="curve" smooth="yes"/>
			<point x="122" y="362"/>
			<point x="205" y="663"/>
			<point x="322" y="663" type="curve" smooth="yes"/>
			<point x="363" y="663"/>
			<point x="400" y="631"/>
			<point x="400" y="504" type="curve" smooth="yes"/>
			<point x="400" y="309"/>
			<point x="317" y="8"/>
		</contour>
	</outline>
</glyph>
